<svg width="160" height="44" viewBox="0 0 160 44" fill="none" xmlns="http://www.w3.org/2000/svg">
<path d="M33.5187 15.885C34.4359 18.0077 34.9365 20.287 34.9932 22.5987C35.24 27.2033 33.4796 31.689 30.167 34.8967C26.9328 38.2427 22.4593 40.1029 17.8062 40.0366C13.1569 40.1074 8.68525 38.2529 5.45068 34.9124C2.07991 31.6471 0.130169 27.1859 0.0232294 22.4941C-0.225663 17.8892 1.53499 13.4027 4.84937 10.1961C8.08502 6.85222 12.5576 4.99245 17.2102 5.05621C21.8594 4.98542 26.3311 6.83995 29.5657 10.1804L29.7958 10.4209L38.0258 2.19085L40.9017 5.06667L17.8062 28.2353L8.23761 18.6667L10.6794 16.2301L17.3252 22.8915L27.2755 12.9098C27.1971 12.8314 27.1291 12.7477 27.0455 12.6693C24.5419 10.0749 21.0477 8.67612 17.4454 8.82614C13.791 8.86899 10.3065 10.3758 7.77225 13.0092C5.18336 15.5089 3.78023 18.992 3.91343 22.5882C3.95883 26.2406 5.46537 29.7226 8.09643 32.2562C10.6021 34.8469 14.0954 36.2435 17.6964 36.0941C19.8987 36.0678 22.062 35.51 24.0023 34.468L19.5004 29.9608L21.937 27.5242L26.8363 32.4183C27.0245 32.2667 27.1971 32.1203 27.3592 31.9582C29.9453 29.4451 31.3407 25.9509 31.1971 22.3477C31.1758 21.1244 31.0001 19.9087 30.6742 18.7294L33.5187 15.885ZM52.0232 15.0013C53.246 13.7403 54.9363 13.0419 56.6925 13.0719C58.4597 13.0447 60.1668 13.7132 61.4454 14.9333C62.7392 16.0946 63.4659 17.7598 63.4376 19.498C63.4717 21.2601 62.7752 22.9578 61.5134 24.1882C60.2915 25.4436 58.6062 26.1396 56.8546 26.1124C55.0836 26.1435 53.3719 25.4746 52.0912 24.251C50.7919 23.0849 50.0646 21.4109 50.099 19.6654C50.071 17.9121 50.7671 16.2248 52.0232 15.0013ZM61.9213 19.4667C61.9337 18.1036 61.3629 16.8002 60.3526 15.885C59.3786 14.9237 58.061 14.391 56.6925 14.4052C55.3321 14.3784 54.0251 14.9339 53.1004 15.932C52.1385 16.9173 51.6112 18.2468 51.6363 19.6235C51.6118 20.9793 52.165 22.2816 53.1579 23.2052C54.1503 24.168 55.488 24.6917 56.8703 24.6588C58.2277 24.6807 59.5302 24.1235 60.452 23.1268C61.4085 22.1504 61.9371 20.8334 61.9213 19.4667ZM74.6742 13.4745C75.4943 13.5525 76.2677 13.8915 76.8807 14.4418C77.4685 14.9605 77.7959 15.7131 77.7749 16.4967V16.9307C77.7898 17.7486 77.4925 18.5413 76.9435 19.1477C76.3775 19.7627 75.597 20.137 74.7631 20.1935H72.1905V25.7621H70.6742V13.4222L74.6742 13.4745ZM75.8088 18.1333C76.0816 17.7425 76.226 17.2765 76.2219 16.8C76.2289 16.4082 76.1256 16.0223 75.9239 15.6863C75.7102 15.3424 75.3883 15.0794 75.0088 14.9386C74.7422 14.846 74.4673 14.7795 74.1879 14.7399H72.1905V18.9595H74.6742C75.1363 18.823 75.5371 18.5312 75.8088 18.1333ZM98.3448 19.498C98.3758 21.2513 97.6836 22.9401 96.4311 24.1673C95.2153 25.4277 93.5338 26.1313 91.7827 26.1124C90.0117 26.1435 88.3 25.4746 87.0193 24.251C85.7122 23.0887 84.9771 21.4142 85.0062 19.6654C84.9777 17.9109 85.676 16.2228 86.9356 15.0013C88.1545 13.7409 89.8414 13.0423 91.5945 13.0719C93.3635 13.0433 95.0726 13.7119 96.3526 14.9333C97.6464 16.0946 98.3731 17.7598 98.3448 19.498ZM91.7618 24.6745C93.1142 24.6822 94.4064 24.1159 95.3173 23.1163C96.2738 22.1399 96.8025 20.823 96.7866 19.4562C96.8094 18.0955 96.2524 16.7894 95.2546 15.8641C94.2775 14.9085 92.961 14.3801 91.5945 14.3948C90.2343 14.3721 88.9292 14.9314 88.0075 15.932C87.0457 16.9173 86.5184 18.2468 86.5435 19.6235C86.519 20.9793 87.0722 22.2816 88.0651 23.2052C89.0511 24.1698 90.3826 24.699 91.7618 24.6745ZM112.034 25.1608C111.268 25.7005 110.351 25.9859 109.414 25.9765C108.575 25.985 107.749 25.7606 107.03 25.3281C106.669 25.0653 106.365 24.7328 106.136 24.3503C105.899 23.9038 105.713 23.432 105.581 22.9438L106.92 22.2588C106.905 22.9232 107.178 23.5616 107.668 24.0105C108.143 24.4658 108.777 24.7172 109.435 24.7111C109.705 24.7105 109.973 24.6682 110.23 24.5856C110.507 24.4936 110.767 24.3557 110.998 24.1778C111.257 23.9761 111.461 23.7139 111.594 23.4144C111.748 23.1018 111.831 22.7588 111.835 22.4105C111.87 21.9874 111.743 21.5668 111.479 21.234C111.31 21.0383 111.119 20.8629 110.91 20.7111C110.638 20.5557 110.357 20.4177 110.068 20.298L107.934 19.5451C107.327 19.2751 106.797 18.8582 106.392 18.332C106.004 17.8271 105.798 17.2064 105.806 16.5699C105.824 16.2656 105.866 15.9631 105.932 15.6654C106.065 15.1366 106.34 14.6541 106.726 14.2693C107.103 13.8225 107.615 13.5105 108.185 13.3804C108.648 13.2828 109.119 13.2303 109.592 13.2235C109.77 13.2235 109.911 13.2131 110.01 13.2235C110.109 13.234 110.366 13.281 110.784 13.3647C111.282 13.49 111.74 13.738 112.117 14.0863C112.589 14.4777 112.938 14.997 113.121 15.5817L111.804 16.1987C111.682 15.6864 111.365 15.2418 110.92 14.9595C110.471 14.6468 109.935 14.4806 109.388 14.4837C109.011 14.4748 108.638 14.5573 108.3 14.7242C107.971 14.9052 107.705 15.1825 107.537 15.519C107.403 15.8055 107.334 16.1178 107.333 16.434C107.317 17.1528 107.727 17.8132 108.379 18.1176L111.547 19.2837C112.104 19.5855 112.565 20.0387 112.876 20.5908C113.173 21.1229 113.33 21.7223 113.33 22.332C113.334 22.8601 113.224 23.3827 113.006 23.864C112.783 24.3635 112.451 24.8067 112.034 25.1608ZM120.567 13.4222H122.015V25.7621H120.567V13.4222ZM132.802 25.7621V14.7242H129.247V13.4222H137.885V14.7242H134.334V25.7621H132.802ZM145.121 25.7621L150.538 13.0719H150.936L156.473 25.7621H154.742L153.174 21.9294H148.259L146.69 25.7621H145.121ZM152.74 20.8105L150.669 15.4824L148.666 20.8105H152.74ZM77.4716 32.6379V31.3412H86.1095V32.6379H82.5592V43.6758H81.0271V32.6379H77.4716ZM93.5971 43.6758V31.3412H100.295V32.6745H95.0768V36.3242H100.295V37.5895H95.0768V42.3425H100.295V43.6758H93.5971ZM113.754 37.1922C114.301 37.4948 114.75 37.9463 115.051 38.4941C115.355 39.0296 115.513 39.6352 115.511 40.251C115.511 40.7771 115.401 41.2973 115.187 41.7778C114.96 42.2779 114.626 42.7223 114.209 43.0797C113.444 43.6169 112.529 43.9004 111.594 43.8902C110.768 43.8996 109.955 43.6845 109.242 43.268C108.88 43.0097 108.578 42.6783 108.353 42.2954C108.112 41.8484 107.924 41.3745 107.793 40.8837L109.142 40.1987C109.127 40.8643 109.401 41.5036 109.895 41.9503C110.369 42.4071 111.004 42.6588 111.662 42.651C111.931 42.6506 112.197 42.6083 112.452 42.5255C112.729 42.4334 112.989 42.2956 113.221 42.1176C113.482 41.9173 113.688 41.6549 113.822 41.3542C113.97 41.0364 114.046 40.6903 114.047 40.3399C114.081 39.9161 113.952 39.4952 113.686 39.1634C113.519 38.9674 113.329 38.7919 113.121 38.6405C112.85 38.4838 112.568 38.3441 112.279 38.2222L110.146 37.4693C109.541 37.1935 109.013 36.7734 108.609 36.2458C108.226 35.7406 108.022 35.1226 108.028 34.4889C108.046 34.1828 108.088 33.8786 108.154 33.5791C108.284 33.0518 108.558 32.5706 108.943 32.1882C109.319 31.7383 109.831 31.4242 110.402 31.2941C110.867 31.1964 111.34 31.1439 111.814 31.1373C111.987 31.1373 112.128 31.1268 112.227 31.1373C112.326 31.1477 112.588 31.1948 113.006 31.2784C113.504 31.406 113.962 31.6558 114.34 32.0052C114.806 32.3942 115.149 32.91 115.328 33.4902L114.01 34.1072C113.889 33.5932 113.572 33.1467 113.126 32.8627C112.677 32.55 112.142 32.3838 111.594 32.3869C111.217 32.375 110.842 32.4539 110.502 32.617C110.171 32.8013 109.905 33.0823 109.738 33.4222C109.609 33.7101 109.542 34.0218 109.54 34.3373C109.522 35.0565 109.933 35.7175 110.585 36.0209L113.754 37.1922ZM131.657 31.3412V32.6379H128.107V43.6758H126.57V32.6379H123.019V31.3412H131.657ZM52.3631 27.6706V35.749H77.4716V39.2418H52.3631V39.2784H49.4036V27.6706H52.3631ZM156.766 35.749V27.6706H159.725V39.2784H156.766V39.2418H131.657V35.749H156.766ZM156.766 3.52941H52.3631V11.6078H49.4036V0H52.3631V0.0366013H156.766V0H159.725V11.6078H156.766V3.52941Z" fill="white"/>
</svg>
