<svg width="132" height="37" viewBox="0 0 132 37" fill="none" xmlns="http://www.w3.org/2000/svg">
<path d="M42.9862 12.8802C43.995 11.8304 45.3895 11.249 46.8383 11.274C48.2963 11.2513 49.7046 11.8079 50.7595 12.8236C51.8269 13.7904 52.4264 15.1766 52.4031 16.6237C52.4311 18.0907 51.8566 19.5039 50.8156 20.5283C49.8076 21.5734 48.4171 22.1529 46.9721 22.1302C45.511 22.1561 44.0988 21.5992 43.0423 20.5805C41.9703 19.6098 41.3704 18.2162 41.3987 16.763C41.3756 15.3034 41.9499 13.8987 42.9862 12.8802ZM51.1521 16.5976C51.1624 15.4628 50.6914 14.3777 49.858 13.6158C49.0543 12.8155 47.9674 12.3721 46.8383 12.384C45.716 12.3616 44.6377 12.8241 43.8748 13.655C43.0813 14.4753 42.6463 15.5821 42.667 16.7282C42.6467 17.8569 43.1031 18.941 43.9223 19.71C44.7411 20.5115 45.8446 20.9475 46.985 20.9201C48.1049 20.9383 49.1795 20.4744 49.9399 19.6447C50.729 18.8318 51.1652 17.7354 51.1521 16.5976ZM61.6732 11.6091C62.3498 11.674 62.9879 11.9563 63.4936 12.4144C63.9785 12.8462 64.2487 13.4728 64.2313 14.1251V14.4864C64.2436 15.1673 63.9983 15.8273 63.5454 16.3321C63.0784 16.8441 62.4346 17.1557 61.7466 17.2027H59.6242V21.8385H58.3732V11.5656L61.6732 11.6091ZM62.6093 15.4876C62.8344 15.1623 62.9535 14.7743 62.9501 14.3776C62.9558 14.0514 62.8707 13.7301 62.7042 13.4504C62.528 13.1642 62.2624 12.9452 61.9493 12.828C61.7294 12.7509 61.5026 12.6955 61.2721 12.6625H59.6242V16.1754H61.6732C62.0545 16.0618 62.3851 15.8188 62.6093 15.4876ZM81.2015 16.6237C81.2271 18.0833 80.656 19.4892 79.6227 20.5109C78.6196 21.5601 77.2324 22.1459 75.7878 22.1302C74.3267 22.1561 72.9145 21.5992 71.858 20.5805C70.7796 19.613 70.1731 18.2189 70.1972 16.763C70.1736 15.3025 70.7497 13.8971 71.7889 12.8802C72.7945 11.8309 74.1862 11.2493 75.6325 11.274C77.0919 11.2501 78.502 11.8068 79.558 12.8236C80.6253 13.7904 81.2248 15.1766 81.2015 16.6237ZM75.7705 20.9331C76.8862 20.9395 77.9523 20.4681 78.7038 19.636C79.493 18.8231 79.9291 17.7267 79.916 16.5889C79.9348 15.4561 79.4753 14.3688 78.6521 13.5984C77.846 12.803 76.7599 12.363 75.6325 12.3752C74.5103 12.3564 73.4336 12.822 72.6732 13.655C71.8797 14.4753 71.4447 15.5821 71.4654 16.7282C71.4452 17.8569 71.9016 18.941 72.7207 19.71C73.5342 20.513 74.6327 20.9535 75.7705 20.9331ZM92.4948 21.338C91.8628 21.7873 91.1068 22.0248 90.3336 22.017C89.6411 22.0241 88.9602 21.8373 88.3666 21.4773C88.0692 21.2585 87.8183 20.9817 87.6289 20.6633C87.4334 20.2915 87.28 19.8987 87.1717 19.4923L88.276 18.9221C88.2638 19.4751 88.4886 20.0066 88.8929 20.3803C89.2848 20.7594 89.8081 20.9687 90.3509 20.9636C90.5735 20.9631 90.7947 20.9279 91.0066 20.8591C91.2353 20.7825 91.4496 20.6677 91.6407 20.5196C91.8538 20.3517 92.0227 20.1334 92.1325 19.8841C92.2595 19.6239 92.3273 19.3383 92.3309 19.0483C92.3598 18.6961 92.2549 18.346 92.0376 18.0689C91.8979 17.906 91.7402 17.76 91.5674 17.6336C91.3433 17.5042 91.1114 17.3894 90.8729 17.2897L89.1129 16.6629C88.6122 16.4381 88.1748 16.091 87.8403 15.653C87.5206 15.2327 87.3504 14.7159 87.3572 14.1861C87.372 13.9327 87.4066 13.6809 87.4607 13.433C87.571 12.9928 87.7976 12.5911 88.1164 12.2708C88.4273 11.8988 88.8498 11.6391 89.3199 11.5308C89.7016 11.4495 90.0902 11.4058 90.4803 11.4002C90.627 11.4002 90.7434 11.3915 90.8254 11.4002C90.9074 11.4089 91.1187 11.4481 91.4638 11.5177C91.8745 11.622 92.2527 11.8285 92.5638 12.1184C92.9529 12.4443 93.2405 12.8766 93.3921 13.3634L92.305 13.877C92.2043 13.4505 91.9428 13.0804 91.576 12.8454C91.2052 12.585 90.7638 12.4467 90.3121 12.4493C90.0014 12.4419 89.6935 12.5106 89.4148 12.6495C89.143 12.8002 88.9233 13.031 88.785 13.3111C88.6747 13.5497 88.6173 13.8097 88.6168 14.0729C88.6037 14.6713 88.9421 15.2211 89.4795 15.4745L92.0936 16.4452C92.5532 16.6966 92.933 17.0738 93.1893 17.5335C93.435 17.9764 93.5642 18.4754 93.5646 18.983C93.5677 19.4226 93.4765 19.8577 93.2972 20.2584C93.113 20.6743 92.8389 21.0431 92.4948 21.338ZM99.5348 11.5656H100.73V21.8385H99.5348V11.5656ZM109.629 21.8385V12.6495H106.696V11.5656H113.822V12.6495H110.893V21.8385H109.629ZM119.792 21.8385L124.261 11.274H124.589L129.157 21.8385H127.729L126.435 18.6478H122.38L121.086 21.8385H119.792ZM126.077 17.7163L124.369 13.2807L122.717 17.7163H126.077ZM63.9811 27.5627V26.4831H71.1074V27.5627H68.1784V36.7517H66.9144V27.5627H63.9811ZM77.2846 36.7517V26.4831H82.8105V27.5931H78.5054V30.6315H82.8105V31.6849H78.5054V35.6417H82.8105V36.7517H77.2846ZM93.914 31.3541C94.365 31.606 94.736 31.9819 94.9838 32.438C95.2346 32.8837 95.3655 33.3879 95.3634 33.9005C95.3639 34.3385 95.2728 34.7716 95.096 35.1716C94.9087 35.588 94.6333 35.9579 94.2893 36.2555C93.6581 36.7027 92.9037 36.9387 92.1325 36.9302C91.4509 36.938 90.78 36.759 90.1913 36.4122C89.8933 36.1971 89.6435 35.9213 89.458 35.6025C89.259 35.2304 89.1041 34.8359 88.9964 34.4272L90.1093 33.857C90.0965 34.4111 90.3232 34.9434 90.7305 35.3153C91.1217 35.6955 91.6454 35.905 92.1885 35.8985C92.4097 35.8983 92.6295 35.863 92.8399 35.7941C93.0686 35.7174 93.2829 35.6027 93.474 35.4545C93.6894 35.2878 93.8599 35.0693 93.9701 34.819C94.0919 34.5544 94.1552 34.2663 94.1556 33.9745C94.1837 33.6217 94.0772 33.2714 93.858 32.9951C93.7203 32.832 93.5639 32.6859 93.3921 32.5598C93.1679 32.4294 92.936 32.3131 92.6976 32.2116L90.9376 31.5848C90.4385 31.3552 90.003 31.0054 89.6693 30.5662C89.3535 30.1457 89.1851 29.6312 89.1905 29.1036C89.2052 28.8488 89.2399 28.5955 89.294 28.3462C89.4017 27.9072 89.6271 27.5066 89.9454 27.1883C90.2549 26.8138 90.6777 26.5522 91.1489 26.444C91.5321 26.3626 91.9221 26.3189 92.3136 26.3134C92.456 26.3134 92.5725 26.3047 92.6544 26.3134C92.7364 26.3221 92.9521 26.3613 93.2972 26.4309C93.708 26.5371 94.0861 26.7451 94.3972 27.036C94.7817 27.3598 95.065 27.7892 95.2125 28.2722L94.1254 28.7858C94.0253 28.3579 93.7638 27.9863 93.3964 27.7498C93.0256 27.4895 92.5842 27.3512 92.1325 27.3537C91.8211 27.3438 91.5119 27.4095 91.2309 27.5452C90.9581 27.6987 90.7384 27.9326 90.6011 28.2156C90.4947 28.4553 90.4389 28.7147 90.4372 28.9774C90.423 29.5761 90.7617 30.1265 91.2999 30.379L93.914 31.3541ZM108.684 26.4831V27.5627H105.755V36.7517H104.487V27.5627H101.558V26.4831H108.684ZM43.2666 23.4274V30.9852H63.9811V33.0909H40.825V23.4274H43.2666ZM129.399 30.9852V23.4274H131.587V33.0909H108.684V30.9852H129.399ZM129.399 2.49734H43.2666V10.0551H40.825V0.391602H131.84V10.0551H129.399V2.49734Z" fill="#383641"/>
<path fill-rule="evenodd" clip-rule="evenodd" d="M33.825 4.73414L14.4164 24.2741L6.6518 16.457L8.87356 14.2202L14.4164 19.8006L31.6032 2.49734L33.825 4.73414Z" fill="#383641"/>
<path fill-rule="evenodd" clip-rule="evenodd" d="M21.8075 31.7153L15.8931 25.7608L18.1148 23.524L24.0292 29.4785L21.8075 31.7153Z" fill="#383641"/>
<path d="M25.8756 19.5253C25.8756 25.8455 20.7865 30.969 14.5088 30.969C8.23111 30.969 3.14203 25.8455 3.14203 19.5253C3.14203 13.2051 8.23111 8.08159 14.5088 8.08159C18.8363 8.08159 22.5989 10.5162 24.5191 14.0992L26.8163 11.7864C24.252 7.66159 19.6986 4.91828 14.5088 4.91828C6.49581 4.91828 0 11.4581 0 19.5253C0 27.5926 6.49581 34.1323 14.5088 34.1323C22.5218 34.1323 29.0176 27.5926 29.0176 19.5253C29.0176 17.5183 28.6156 15.6059 27.8881 13.8651L25.4295 16.3404C25.7199 17.3514 25.8756 18.4201 25.8756 19.5253Z" fill="#383641"/>
</svg>
