<svg xmlns="http://www.w3.org/2000/svg" width="20" height="20" fill="none">
  <g clip-path="url(#a)">
    <path fill="#fff" d="M5.99183 12.9583H16.6002c.1167 0 .2305-.036.326-.1031.0954-.0671.1678-.1621.2073-.2719L20.0002 5c.0325-.08913.0434-.18469.0318-.27885s-.0454-.18423-.0985-.26282c-.0533-.08749-.1279-.16009-.2167-.21108-.0889-.05099-.1892-.07871-.2916-.08058H4.72516l-.29166-1.425c-.02498-.13024-.09421-.24785-.19596-.33289-.10175-.08505-.22977-.13231-.36238-.13378H.541829c-.154709 0-.303082.06146-.412479.17085-.1093957.1094-.1708539.25777-.1708539.41248 0 .15471.0614582.30309.1708539.41248.109397.1094.25777.17086.412479.17086H3.40016l1.66667 8.55003c-.25118.1094-.47786.2681-.66667.4666-.29663.2974-.50374.6722-.5977 1.0816-.09397.4094-.07102.837.06623 1.234.13725.3969.38329.7474.71005 1.0113.32676.264.72111.4308 1.13809.4815.11732.4135.36632.7774.70922 1.0365.3429.2592.76097.3994 1.19078.3994.42981 0 .84788-.1402 1.19078-.3994.3429-.2591.5919-.623.70922-1.0365h3.74167c.1173.4135.3663.7774.7092 1.0365.3429.2592.761.3994 1.1908.3994.4298 0 .8479-.1402 1.1908-.3994.3429-.2591.5919-.623.7092-1.0365.1496-.0044.2916-.0669.3958-.1742.1043-.1074.1626-.2512.1625-.4008.0002-.1505-.0578-.2952-.1619-.4039-.104-.1087-.2461-.173-.3964-.1795-.1224-.4088-.3734-.7672-.7157-1.022-.3422-.2548-.7576-.3924-1.1843-.3924-.4267 0-.8421.1376-1.1844.3924-.3422.2548-.5932.6132-.7156 1.022H9.54183c-.12207-.4068-.37203-.7634-.71279-1.0169-.34075-.2535-.75416-.3904-1.17888-.3904-.42472 0-.83812.1369-1.17888.3904-.34076.2535-.59071.6101-.71278 1.0169-.26117-.0571-.49201-.2087-.6481-.4258-.1561-.217-.22644-.4841-.19748-.7498.02895-.2658.15515-.5115.35433-.6898.19917-.1783.45724-.2767.72458-.2762v-.0084ZM6.2335 11.8 5.00016 5.34167H18.5918L16.2002 11.8H6.2335Zm.56666 3.9167c0-.1649.04888-.326.14044-.463.09157-.137.22172-.2439.37399-.3069.15227-.0631.31983-.0796.48148-.0475.16165.0322.31014.1116.42668.2281.11655.1166.19591.265.22807.4267.03215.1616.01565.3292-.04742.4815-.06308.1522-.16989.2824-.30693.374-.13704.0915-.29816.1404-.46297.1404-.22102 0-.43298-.0878-.58926-.2441-.15628-.1563-.24408-.3682-.24408-.5892Zm7.54164 0c0-.1649.0489-.326.1405-.463.0915-.137.2217-.2439.374-.3069.1522-.0631.3198-.0796.4814-.0475.1617.0322.3102.1116.4267.2281.1166.1166.1959.265.2281.4267.0321.1616.0156.3292-.0474.4815-.0631.1522-.1699.2824-.307.374-.137.0915-.2981.1404-.4629.1404-.2211 0-.433-.0878-.5893-.2441-.1563-.1563-.2441-.3682-.2441-.5892Z"/>
  </g>
  <defs>
    <clipPath id="a">
      <path fill="#fff" d="M0 0h20v20H0z"/>
    </clipPath>
  </defs>
</svg>
