<svg width="24" height="27" viewBox="0 0 24 27" fill="none" xmlns="http://www.w3.org/2000/svg">
<g clip-path="url(#clip0_4001_76)">
<path d="M5.99183 19.4583H16.6002C16.7169 19.4583 16.8307 19.4223 16.9262 19.3552C17.0216 19.2881 17.094 19.1931 17.1335 19.0833L20.0002 11.5C20.0327 11.4109 20.0436 11.3153 20.032 11.2211C20.0204 11.127 19.9866 11.0369 19.9335 10.9583C19.8802 10.8708 19.8056 10.7982 19.7168 10.7472C19.6279 10.6963 19.5276 10.6685 19.4252 10.6667H4.72516L4.4335 9.24167C4.40852 9.11143 4.33929 8.99382 4.23754 8.90878C4.13579 8.82373 4.00777 8.77647 3.87516 8.775H0.541829C0.38712 8.775 0.238747 8.83646 0.12935 8.94585C0.0199543 9.05525 -0.0415039 9.20362 -0.0415039 9.35833C-0.0415039 9.51304 0.0199543 9.66142 0.12935 9.77081C0.238747 9.88021 0.38712 9.94167 0.541829 9.94167H3.40016L5.06683 18.4917C4.81565 18.6011 4.58897 18.7598 4.40016 18.9583C4.10353 19.2557 3.89642 19.6305 3.80246 20.0399C3.70849 20.4493 3.73144 20.8769 3.86869 21.2739C4.00594 21.6708 4.25198 22.0213 4.57874 22.2852C4.9055 22.5492 5.29985 22.716 5.71683 22.7667C5.83415 23.1802 6.08315 23.5441 6.42605 23.8032C6.76895 24.0624 7.18702 24.2026 7.61683 24.2026C8.04664 24.2026 8.46471 24.0624 8.80761 23.8032C9.15051 23.5441 9.39951 23.1802 9.51683 22.7667H13.2585C13.3758 23.1802 13.6248 23.5441 13.9677 23.8032C14.3106 24.0624 14.7287 24.2026 15.1585 24.2026C15.5883 24.2026 16.0064 24.0624 16.3493 23.8032C16.6922 23.5441 16.9412 23.1802 17.0585 22.7667C17.2081 22.7623 17.3501 22.6998 17.4543 22.5925C17.5586 22.4851 17.6169 22.3413 17.6168 22.1917C17.617 22.0412 17.559 21.8965 17.4549 21.7878C17.3509 21.6791 17.2088 21.6148 17.0585 21.6083C16.9361 21.1995 16.6851 20.8411 16.3428 20.5863C16.0006 20.3315 15.5852 20.1939 15.1585 20.1939C14.7318 20.1939 14.3164 20.3315 13.9741 20.5863C13.6319 20.8411 13.3809 21.1995 13.2585 21.6083H9.54183C9.41976 21.2015 9.1698 20.8449 8.82904 20.5914C8.48829 20.3379 8.07488 20.201 7.65016 20.201C7.22544 20.201 6.81204 20.3379 6.47128 20.5914C6.13052 20.8449 5.88057 21.2015 5.7585 21.6083C5.49733 21.5512 5.26649 21.3996 5.1104 21.1825C4.9543 20.9655 4.88396 20.6984 4.91292 20.4327C4.94187 20.1669 5.06807 19.9212 5.26725 19.7429C5.46642 19.5646 5.72449 19.4662 5.99183 19.4667V19.4583ZM6.2335 18.3L5.00016 11.8417H18.5918L16.2002 18.3H6.2335ZM6.80016 22.2167C6.80016 22.0518 6.84904 21.8907 6.9406 21.7537C7.03217 21.6167 7.16232 21.5098 7.31459 21.4468C7.46686 21.3837 7.63442 21.3672 7.79607 21.3993C7.95772 21.4315 8.10621 21.5109 8.22275 21.6274C8.3393 21.744 8.41866 21.8924 8.45082 22.0541C8.48297 22.2157 8.46647 22.3833 8.4034 22.5356C8.34032 22.6878 8.23351 22.818 8.09647 22.9096C7.95943 23.0011 7.79831 23.05 7.6335 23.05C7.41248 23.05 7.20052 22.9622 7.04424 22.8059C6.88796 22.6496 6.80016 22.4377 6.80016 22.2167ZM14.3418 22.2167C14.3418 22.0518 14.3907 21.8907 14.4823 21.7537C14.5738 21.6167 14.704 21.5098 14.8563 21.4468C15.0085 21.3837 15.1761 21.3672 15.3377 21.3993C15.4994 21.4315 15.6479 21.5109 15.7644 21.6274C15.881 21.744 15.9603 21.8924 15.9925 22.0541C16.0246 22.2157 16.0081 22.3833 15.9451 22.5356C15.882 22.6878 15.7752 22.818 15.6381 22.9096C15.5011 23.0011 15.34 23.05 15.1752 23.05C14.9541 23.05 14.7422 22.9622 14.5859 22.8059C14.4296 22.6496 14.3418 22.4377 14.3418 22.2167Z" fill="white"/>
</g>
<rect x="10.875" y="2.5" width="12" height="12" rx="6" fill="white" stroke="#383641" stroke-width="2"/>
<path d="M19.2695 12H14.6895V11.14L16.9695 9.04C17.2961 8.74 17.5695 8.42333 17.7895 8.09C18.0095 7.75 18.1195 7.41 18.1195 7.07V6.95C18.1195 6.56333 18.0128 6.25 17.7995 6.01C17.5861 5.77 17.2628 5.65 16.8295 5.65C16.6161 5.65 16.4295 5.68 16.2695 5.74C16.1095 5.8 15.9695 5.88333 15.8495 5.99C15.7361 6.09667 15.6395 6.22333 15.5595 6.37C15.4861 6.51 15.4261 6.66333 15.3795 6.83L14.6295 6.54C14.6961 6.33333 14.7861 6.13333 14.8995 5.94C15.0195 5.74 15.1661 5.56333 15.3395 5.41C15.5195 5.25667 15.7328 5.13333 15.9795 5.04C16.2328 4.94667 16.5295 4.9 16.8695 4.9C17.2095 4.9 17.5128 4.95 17.7795 5.05C18.0461 5.15 18.2695 5.29 18.4495 5.47C18.6295 5.65 18.7661 5.86333 18.8595 6.11C18.9595 6.35667 19.0095 6.63 19.0095 6.93C19.0095 7.20333 18.9695 7.45667 18.8895 7.69C18.8161 7.92333 18.7128 8.14667 18.5795 8.36C18.4461 8.56667 18.2828 8.77 18.0895 8.97C17.9028 9.17 17.6995 9.37 17.4795 9.57L15.5995 11.26H19.2695V12Z" fill="#383641"/>
<defs>
<clipPath id="clip0_4001_76">
<rect width="20" height="20" fill="white" transform="translate(0 6.5)"/>
</clipPath>
</defs>
</svg>
