<svg xmlns="http://www.w3.org/2000/svg" width="58" height="60" fill="none">
  <path fill="#FFB142" fill-rule="evenodd" d="M31.4084 58.2959c.2834-.123 1.3357-.2051 1.7-.3692-1.7404.1231-1.7404.0821-1.7.3692ZM.688875 27.7326c-.202374 1.1077-.08095 1.8871 0 2.5435-.08095-.7384.121424-1.8871 0-2.5435ZM28.1719 58.2549c.0404.041.2024.082.3238.082.1214 0 .2833 0 .4452-.041-.1619-.041-.2429-.041-.3238-.082-.2429 0-.4452 0-.4452.041Zm1.74 0c-.081.041-.081.041-.1619.082.0809 0 .2428.0411.3643.0411 0-.0411.1619-.0411.0809-.0821-.0405 0-.2024 0-.2833-.041ZM32.6629.492324c.9714.205123 2.0642.45127 3.0356.697416.3643.08205.769.20512 1.1333.3282.85.12307 1.6595.69742 2.4285.90254l-.0405-.04103c.4047.20513.769.3282 1.1738.53332.3642.12308.8095.41025 1.1333.53332.6476.36922 1.2951.69742 1.8213 1.06664.3238.20513.5262.36922.7286.45127.4857.3282.9309.6564 1.4571 1.02562.2023.08205.4857.36922.6476.45127.1619.08205.2833.1641.3642.20512-.2023-.28717-.5666-.57434-.9309-.82049l-1.7404-1.18971c-.5262-.36922-.9714-.73845-1.4976-.86152-.4047-.20512-.769-.41025-1.1333-.61537-.6071-.24615-1.3356-.69742-1.9832-.86151-.2429-.12308-.5262-.20513-.7286-.3282-.4452-.1641-.8904-.41025-1.2547-.45127-.1619-.04103-.3238-.12308-.4452-.1641-.1214-.04102-.2429-.08205-.4048-.12307-.1214-.04103-.2428-.08205-.3642-.08205-1.1333-.410249-2.3071-.697421-3.4404-.861519-.3238-.041025-.4857-.041024-.4857.041025.0405.041024.2429.123073.5262.164098ZM43.5506 4.55376c.1214.04102.2428.1641.4047.28717-.1619-.12307-.3238-.20512-.4047-.28717ZM53.103 46.5629c-.0405.041-.0405.082-.0405.082l.0405-.082Z" clip-rule="evenodd"/>
  <path fill="#FFB142" fill-rule="evenodd" d="M56.9906 34.2555c.1214-.7384.2428-1.5179.1619-2.3384-.0405.041-.0405.1231-.081.2051v-.4923l-.0404-.123v-.1231c0-.6154-.0001-1.2718.0404-1.9282 0-.123-.0405-.2051-.0809-.3692-.1619-1.8051-.4857-3.6922-.9714-5.4562-.0405-.1231-.1214-.2872-.1619-.4103-.4452-1.5179-.9309-2.9127-1.5381-4.4306-.0404-.0821-.1619-.2462-.2023-.3282-.081-.1641-.1215-.2872-.1619-.4103-.0405-.2461-.1619-.4923-.3643-.7384-.4857-.9436-.8904-1.9692-1.538-2.6256-.85-1.0666-1.8214-2.4615-2.8333-3.4871-.4857-.5333-.8095-1.1077-1.2952-1.59995-.4857-.45127-.5666-.28717-1.2952-.86152-.769-.57434-1.4975-1.27176-2.3475-1.8461l-.0405.08205c0-.04103-.0404-.12308.0405-.08205l-.3238-.24615-.0405.08205c-.3642-.24615-.688-.49229-1.0118-.69742-.081-.04102-.2429-.08205-.3643-.1641l-.1214-.04102-.081-.08205c-.2833-.24615-.688-.36922-.8499-.57434.2023 0 .8094.36922.8904.28717-1.1333-.73844-1.8618-.98459-2.3475-.98459-.2429-.12307-.5667-.28717-.5262-.3282.2024-.1641-.3238-.32819-.9714-.53332-.5262-.1641-.6881-.12307-.6881 0-.1619-.08205-.2428-.08205-.3642-.1641-.1619-.08204-.2834-.12307-.4048-.16409h.1214c-.1619-.08205-.2833-.12308-.4047-.1641-.4452-.1641-1.1738-.36922-.9309-.4923.2023-.08205-.1215-.20512-.6476-.36922-.4453-.12307-.8905-.32819-1.3762-.28717.5262.1641 1.1738.49229.9714.61537-.2428-.04103-.4857-.12308-.769-.1641-.1619-.1641-.2833-.28717-.5262-.45127-.0404-.08205-.1214-.12307-.3642-.20512-.0405-.1641-.1619-.36922-.4453-.53332.2429 0 .5262.04102.8095.08205.85.16409 1.6595.41024 2.388.73844.4453.24615 1.0119.41024 1.5786.49229.7285.3282 1.457.61537 2.1856.94357 1.8214.86152 3.5213 1.8461 5.1403 2.83069h-.0405c.9309.57435 1.7404 1.43587 2.6309 2.13328.3642.20513.769.6564 1.1737 1.06664.1215.12308.2834.24615.4048.41025.2833.24615.5666.57435.8499.90255.85 1.0666 1.6595 2.0102 2.3881 3.0358-.0405-.082-.0405-.082-.081-.1641l.0405.041.0405.1231c.2428.3282.4857.7795.7285.9846l.1214.1641.081.1641c.3642.6564.6476 1.3948 1.0118 1.8461.081.1641.1215.1641.2024.3282.2024.4513.4048.9025.6071 1.2307.0405.0821.0405.0821.081.0821.0405.041.0405 0 0-.1231-.2429-1.0666-.7286-2.1333-1.4571-3.282-.2024-.2871-.4452-.6974-.6476-1.0256-1.2547-2.3384-2.8737-4.0204-4.6546-5.49727-.2428-.24614-.4452-.45127-.6476-.53331-.2428-.20513-.4857-.41025-.6476-.45128-.2428-.20512-.4452-.36922-.6071-.49229-.3238-.28717-.6476-.57434-.9714-.86152-1.4166-1.27176-3.0761-2.21532-4.776-2.99479-.769-.36922-1.619-.61537-2.4285-1.06664-.6071-.3282-1.3761-.65639-1.1333-.24615.0405.08205-.4857-.08205-.8095-.16409-.6071-.1641-1.3357-.45128-1.9832-.57435-.081 0-.2024-.04102-.2429-.08205-.1214-.04102-.2428-.08205-.4452-.08205-.081 0-.1619 0-.2833-.08205-.5667-.205119-1.1738-.369218-1.7405-.492291-.3642-.123074-.6071-.164099-.9309-.205123-.0405-.082049-.1619-.123074-.4452-.164099-.1619-.041024-.2428-.041024-.4452-.082049h-.1619.1214c-.0809-.0820488-.2024-.1230734-.5666-.1230734h-.0405C29.144 0 28.9821 0 28.7392 0c-.0809 0-.2428.0410246-.2833 0-.6476.0410246-1.3357.164098-1.9833.246147-.3642-.041024-.769 0-1.1333.041025-1.5785.123074-3.1165.369221-4.695.697418V.943565c-.6881 0-1.5785.369225-2.388.574345-.3643 0-.8095.1641-1.1738.3282-.2429.04102-.5667.12307-.9309.28717-.4048.1641-.2429.20512-.4857.32819-.2024.08205-.3643.20513-.4048.28718-.1214.12307-.6476.32819-.5261.41024.0404.04103.1619.04103.4452 0 .1214.08205.4047.04103.8904-.08205l.081-.04102c-.0405 0-.081.04102-.081.04102.3238.04103.6476.12308.9714.1641.0405.12308.1619.1641.5667.08205-.2429.12307-.4453.28717-.6476.45127-.6072.36922-1.4167.65639-1.7404 1.10766-.8095.61537-1.7809 1.18972-2.4285 1.88714l.0404-.04103c-.3642.41025-1.0118.77947-1.2951 1.18971-.1619.1641-.4857.41025-.6476.6564l-.0405.08205-.1214.08204c-.3643.36923-.72859.73845-1.13334 1.10767-.48569.4102-.97139.8205-1.37614 1.3948-.52617.6975-1.49756 1.8051-2.06421 2.7077-.56664.9435-1.45709 1.8461-1.74041 2.8717l.04047-.041-.04047.041c-.56665 1.0256-1.09282 2.0922-1.53804 3.1589-.3238.6564-.56665 1.3538-.76902 2.1743-.04048.2051-.12143.3692-.1619.5743-.52617 1.3538-.93092 2.9128-1.092818 4.5127-.080949.8205-.202374 1.559-.040475 2.2564v.2461c-.080949.2051-.080949.4513-.080949.7385-.161899.7384 0 1.5589.040475 2.3384l.040474.041-.040474-.041c-.08095.3282 0 .8205.080949 1.2307-.040475.2872.121424.8205.121424 1.2307.040474.0821.040474.1641.040474.2462-.040474.1641 0 .4513.08095.7795.04048.4922.20237 1.0256.40475 1.3948.08095.3692.1619.6974.3238.9846.12142.4512.24284.8205.36427 1.2307.24285.6154.44522 1.4769.76902 2.0102.12142.2462.20237.5333.28332.7385.20237.4512.3238.9025.56665 1.1897.08095.1641.1619.3282.20237.4512.04048.1231.12143.2462.20237.3693.08095.123.12143.2051.20238.3282.52617 1.1076 1.13329 2.1332 1.86184 3.0768.20237.2462.32379.3692.36427.3282.04047-.041-.04048-.2461-.20238-.4923-.52617-.8615-1.13329-1.8051-1.65946-2.6256-.1619-.3282-.36427-.6974-.56665-1.0666-.52617-.6974-.68807-1.641-1.09281-2.3794v.082c-.1619-.4102-.28333-.7794-.44522-1.1897-.1619-.3282-.28333-.8615-.44523-1.2307-.04047-.2052-.12142-.3693-.1619-.5744 0 .0411.04048.0821.04048.0821.04047.082.08095.123.12142.2051 0-.0821-.04047-.1641-.04047-.2461v-.0411c0-.082 0-.2051-.04048-.3282.04048-.041 0-.3282-.08095-.6153h.04048v-.2462c.24285.9026.52617 1.7641.84997 2.6256.28332.8205.68807 1.5999.97139 2.5025.20238.6564.52617 1.4769.60712.9846.04048-.0821.28333.4102.44522.6974.3238.5743.6476 1.2307 1.01187 1.8461.04048.041.12143.1641.12143.2461.04047.1231.12142.2462.24285.4103.04047.041.12142.1231.16189.2461.8095 1.641 1.82137 3.1589 3.35941 4.3897.20241.1641.44521.4512.60711.6153.2429.4103.6476.7795 1.0524 1.1077 1.2142 1.0666 2.4284 2.0102 3.8046 2.8717v.041c.4857.4923 1.3761.8616 2.0642 1.3128.2428.2462.6881.4513 1.0523.6154.2024.1641.4857.2872.85.4513.4047.2051.3238.041.5666.123.2024.0821.4048.1231.4857.0821.1215 0 .6881.2051.6072.082 0-.082-.081-.1641-.3238-.2871-.0405-.1231-.2834-.3282-.6881-.5744l-.081-.041c.0405 0 .081.041.081.041-.1619-.2461-.3643-.5333-.5667-.8205.0405-.123 0-.2871-.5666-.6153-.0405-.1231-.1619-.2462-.2024-.3693.4048.2052.85.3693 1.2547.5334.4048.1641.6881.123.6881.041.1214-.0821-.3643-.2462-.6476-.4103-.3238-.1641-.6071-.3692-.6071-.4512-.0405-.1231.4452.082.6881.123.8499.2052 1.9428.7795 2.9142.9026.4452.1231 1.0118.3692 1.4166.3282.6476.1231 1.3356.3692 1.9023.3282-.0405-.041-.1214-.041-.1619-.0821h.0405l.1214.0411c.6071.082 1.3356.2461 1.8618.1641l-.0809-.0411h.0809c.9714.0411 1.9833.3282 3.0761.1231.85-.1231 2.3475-.2051 3.3594-.4102 1.0523-.2462 2.3071-.2872 3.238-.7795h-.081c.0405-.041.0405 0 .0405 0 2.0237-.5333 4.007-1.3128 5.8688-2.3794 1.2143-.5744 2.4285-1.2718 3.5213-2.1333.0405.041.1619.041.3643-.1231l.1214-.1231s-.0809.0821-.1214.1231c.1214 0 .2429 0 .3643-.082-.2833.2051-.5667.4923-.85.6564h.0405c-.2833.1641-.7286.4923-1.0119.6153-.6476.2462-1.3356.8615-2.0642 1.2308-.1619.082-.4047.2051-.6071.2871-.4048.1231-.9309.4923-1.3762.6154-.2428.0821-.4047.1641-.5666.2461-.7285.3693-1.4571.6975-2.2666.8616l-.1214.041-.081.041c-2.307.5744-4.007 1.1897-5.7878 1.6 3.3998-.3692 6.6783-1.3949 9.7139-2.8717.2024-.1231.4047-.2052.6476-.3282.5666-.1231 1.1738-.5334 1.7404-.9436.3238-.2051.6071-.3692.9309-.5744.3238-.1641.6881-.4512.9714-.6153.1214-.0821.2024-.1641.2833-.2051.2834-.1231.6476-.4103.9714-.6975.081-.082.2429-.1641.2834-.2461.1214-.0821.3238-.1641.4047-.2462.1619-.1641.2833-.2871.4452-.4102.081-.041.2024-.1231.4048-.3282h.0404c.0405 0 .1619-.082.3643-.2461.0405-.0821.1619-.2052.2024-.2052.9309-1.1076 1.7404-2.3794 2.5094-3.6101.2834-.4513.5667-.9026.769-1.3538.2024-.2872.4048-.6154.5262-.9026.081-.1231.2024-.2461.2833-.3692.5667-1.5179 1.2143-3.1179 1.4571-4.5948.2024-.6974.5667-1.4768.4857-2.0512.1619-1.0256.4452-2.1333.4048-3.0768v-.0821ZM16.1111 2.58455s-.0405-.04103.0405-.08205c.0404 0 .0809-.04103.1214-.04103-.081.04103-.1619.12308-.1619.12308ZM19.6324 58.378s0 .041-.081.041c-.0404 0-.0809-.041-.1214-.041h.2024Zm35.4154-25.3942c.0405-.6154.0809-1.2308 0-1.8051.1214.4923.0405 1.1487 0 1.8051Zm.0405-11.7331c-.0405-.041-.081-.2051-.1215-.2051 0-.082-.0404-.1641-.0404-.2461.0404.1641.1214.3282.1619.4512Zm-.2429 3.5692c0 .041 0 .123-.0405.082.0405 0 .0405-.041.0405-.082Zm-1.1738 3.6512c0 .123.0405.2051.0405.2871 0 .2462-.0405-.041-.0809-.1641 0 0 .0404 0 .0404-.123Zm-.3642 4.3486v.082-.082Zm-5.8689 15.2611c.0405-.082.081-.1641.1619-.2461.0405-.4103.5667-1.1898.9714-2.0513-.1619.6154-.5666 1.3538-.9714 2.0513 0 .041-.0404.082 0 .123-.0404 0-.0809.0411-.1619.1231Zm-35.901-.4102c-.0405 0-.081-.0821-.1215-.0821v-.041c-.0809-.0821-.0404-.041-.0809-.0821 0 0 .0405 0 .0809.0821h.0405l.0405.041c0 .041.0405.041.0405.0821Zm-4.89749-1.4769c0-.0411-.04048-.0411-.04048-.0411.04048.0411.08095 0 .04048-.041v-.041l.04047.041c-.24285-.4923-.48569-1.1897-.24285-1.1076.24285.3692.52618.9435.84997 1.3127.1619.2052.3238.4513.4857.6975.24285.6153.28332.7384.1619.9435-.1619-.2871-.40475-.5333-.60712-.9025-.12143-.2872-.40475-.6154-.6476-.9436 0 .041-.04047.041-.04047.0821Zm.40475-7.5075c-.04048-.041-.08095-.0411-.12143-.0411-.04047.1641-.08095.3282-.12142.4103.04047-.1641.04047-.4103.12142-.4103 0-.123.04048-.2051.04048-.3281.04047.123 0 .1641.08095.3692Zm-.89045 4.964s0-.0411-.04047-.0411c.08095.1231.20237.3282.28332.4513h-.04047c-.04048-.1231-.12143-.2461-.20238-.4102Zm-.44522-2.6666c-.08095-.1231-.08095-.1641-.12142-.2052 0-.041-.04048-.123-.04048-.1641.04048.1231.08095.2462.1619.3693Zm-.89044-3.6923c-.04048 0-.08095-.041-.12143-.123v-.0821c.04048.1231.08095.2462.12143.2051Zm-2.54991-2.3384c0-.041-.04048-.123-.04048-.123.04048.082.04048.082.04048.123Zm.72854 2.7077c-.04047 0-.04047.2051.04048.4102-.08095-.1231-.12143-.2872-.1619-.4513.04047-.082.08095 0 .12142.0411Zm1.33567-1.559c-.08095-.123-.12143-.2461-.20237-.5743.08094.2461.16189.4102.20237.5743Zm.20237 1.5179c0-.2051-.04047-.3282.04048-.3692-.04048 0-.04048.1641-.04048.3692Zm-2.79275-7.7536v.041c0 .1641-.04048.2872-.04048.4103v.123-.041c-.04047-.041-.04047-.041-.04047-.082 0-.1641.04047-.2872.04047-.4103l.04048-.041Zm-.4857 4.5127c.04047 0 .04047 0 .08095-.041 0 .082 0 .1641.04047.2461-.04047-.082-.08095-.1641-.12142-.2051-.08095 0-.1619-.1231-.24285-.2872.12143.041.20237.1641.24285.2872Zm3.64272 7.7126c.08095.1641.08095.2462.1619.3692.04048.1641.12143.3282.1619.4103v-.0821c.04048.1641.08095.2872.1619.4103.20238.4513.60712 1.1076.3238 1.0256-.08095-.041-.08095 0-.08095.041-.08095-.1641-.1619-.3282-.24285-.4512 0-.2052-.28332-.5744-.44522-.9436-.04047-.2462-.12142-.5333-.24285-.8205.08095.082.1619.082.20237.041Zm7.12351-31.8351c.0405 0 .0405 0 0 0Zm18.9827-5.94852c0 .08205-.1619.04103-.1619.08205 0-.04102.1619-.04102.1619-.08205Zm-1.8618-.24615h-.1619.0809c.1214-.04102.3238-.04102.5262-.04102-.1214.04102-.3643 0-.4452.04102Zm.4047.28718h-.2833.2833ZM49.5028 40.7374c0-.041.0809-.1231.0809-.1641 0 .0821-.0809.2462-.0809.1641Zm.0809.2051c0-.041 0-.041 0 0Zm2.8737-8.328c0 .0821 0 .1231-.0405.2462 0-.1231 0-.1231-.0404-.1641.0404-.0821.0809-.041.0809-.0821Zm-.5666-14.2765c.0404 0 .0404 0 0 0 0-.041-.0405-.041-.0405-.0821 0-.082-.0405-.082-.0405-.082.0405.041.081.082.081.1641Zm-.1215-2.7897c.0405.041.0405.041 0 0Zm-.3642-.3282c-.0405 0-.0405 0 0 0Zm-8.4188-7.5485c-.2024-.12308-.4047-.20513-.5262-.28718.1215.04103.2834.12308.5262.28718Zm-1.6594-.77947c.0404 0 .0809 0 .1214.04102l.0405.04103c-.0405-.08205-.1215-.08205-.1619-.08205Zm.1619-.12307c.0404-.04103-.081-.1641-.2429-.28718.1619.12308.2833.20513.2429.28718Zm-3.1976-1.80509c.0405.04103.1215.04103.1215.08205-.081-.04102-.2429-.08205-.3643-.12307.1619 0 .2024.04102.2428.04102ZM35.458 3.24094c.1214.04103.2429.04103.4452.08205h.0405c-.1214-.04102-.3643-.08205-.4857-.08205ZM30.1558.246147c-.0404 0-.0404 0-.0809.041025l.0809-.041025Zm-4.776.164099h.081-.2834.2024ZM6.19479 14.6047c-.04048.0411-.08095.0411-.12143.0411.04048 0 .08095-.0411.12143-.0411ZM.933071 32.0402c0 .041-.040474.082-.040474.041v-.082c0 .082.040474.082.040474.041ZM4.53532 43.1168c-.08095-.2051-.1619-.3692-.24285-.5743.04048.041.08095.082.08095.1231.04048.123.12143.3692.20238.5333 0 0-.04048-.041-.04048-.0821Zm1.90231 3.7333c-.48569-.6975-.89044-1.4769-1.13329-2.2154-.04047-.082-.08095-.2051-.12142-.2871.08095.123.1619.2871.20237.4102.08095.2051.28332.5333.44522.7795.04048.041.08095.082.12143.1231.60712.8204 1.13329 1.682 1.90231 2.4204 0 .041-.04047.041-.04047.0821-.24285.082-.84997-.6154-1.37615-1.3128Zm1.65947-5.4973c.1619 0 .20237-.2051.12142-.5744.04048.2462.08095.4513.12143.6564.08095.4103-.12143.0821-.24285-.082Zm.3238 5.087c.04047 0-.04048-.1231.04047-.041.08095.082 0 .082.04048.1641 0 0-.04048-.041-.08095-.1231Zm2.7118 1.2718c.081.041.2429.2461.3238.2461.0405.0411 0 0 0 .0411.0405.041.1214.123.1214.123l-.0404-.041c-.1215-.082-.2834-.2051-.4048-.3692Zm.4048 5.5383-.0405-.041c.0405.041.1619.1231.2023.1641l-.1618-.1231Zm1.1332-.4513c-.0404-.041 0-.041 0 0-.2023-.2461-.3238-.4102-.4857-.6153l-.0404-.0411.0404.0411c.4048.3282.4857.4512.4857.6153.0405 0 .0405.0411.081.0821-.0405-.041-.0405-.041-.081-.0821Zm1.9833-3.405c.1214.041.1214.041.2429.082-.0405 0 0 .0821 0 .1231-.081-.082-.1619-.1231-.2429-.2051Zm4.4522 3.5281c.1214.041.1619.041.2429.0821-.081-.0411-.081 0-.2429-.0821Zm1.4571.7795c.0405.041.0405.041 0 0h-.0405c-.1214.041-.3642 0-.6071-.0821-.1214-.041-.2428-.082-.3643-.1641h-.0404c-.1215-.041-.1215-.041-.2024-.082.0809.041.1619.082.2428.082.1215.0411.2429.1231.3643.1641.2024.041.4048.041.6071.0821h.0405c-.1214-.1231-.1619-.2052-.2428-.2872 0 0-.0405 0-.0405-.041h.0405s-.0405-.0411-.081-.0821c-.2833-.2051-.5666-.3692-.769-.5743-.2833-.1641-.6071-.4103-.6071-.4103s.3238.2052.5666.3282c.0405.0411.0405.0411.081.0411.4047.2051.6071.4102.769.5743.0405.041.0809.041.1214.0821 0 0 0-.0001-.0405-.0411.1215.2462.3238.3692.2024.4103Zm.7286.123-.3238-.123c.1214.041.2428.123.3642.1641l-.0404-.0411Zm3.1165 1.3949c.0405 0-.0809-.041-.0809-.0821.0404.0411.0809.0411.1619.0821h-.081Zm3.5213.6974c-.1214-.0821-.2833-.1641-.4452-.2051.1214 0 .3238 0 .5262.041.1214.041.2023.1231-.081.1641Zm2.2261-1.7641c.0405.0411.1215.0411.2024.0411-.1214-.0411-.2024-.0411-.2833-.0411h.0809Zm.2834.4103c0 .041-.081.041-.1619.041.0809 0 .0809 0 .1619-.041Zm4.5331 2.4204c-.0405.0411-.0405.0821-.1214.0821.0405 0 .0809-.041.1214-.0821 0 0 .081.0411.1619.0411-.0809 0-.1214-.0411-.1619-.0411Zm2.388-2.8307c-.1214.0411-.2428.0821-.2833.0411h-.0809c.0404 0 .0404 0 .0809-.0411v.0411h.1619c.0405-.0411.081-.0411.1214-.0411Zm5.5046-2.5435c-.3643.1641-.6881.3282-.8095.2462-.2024-.0411.2024-.2872.5262-.4923.1214-.0821.3238-.2052.2023-.2462-.2023.041-.5261.2872-.688.2462.2833-.2052.6476-.3282.9309-.5744-.081 0-.1214.0411-.1214 0h-.0405.0405c.0809-.041.1214-.041.1214 0 .0405-.041.1214-.082.1619-.123.3643-.1641.769-.5334 1.1738-.6975.5666-.2871.9714-.6974 1.457-1.1487h.0405l.0405-.041H45.86c.3238-.4923-.1214-.082-.4047.1231l-.1214.082-.081.0411c-.2428.041-.6071.4102-.85.4923.931-.7795 1.9023-1.5179 2.7523-2.4205.0405-.041.1214-.1231.2024-.1641v.041c-.0405.1231.0405.0411.1214-.082.0405-.0821.1214-.1641.1214-.1641.1619-.1641.2834-.3282.2834-.4103 0-.1641.0809-.3281.2023-.4922.2024-.1231.5262-.4513.6881-.4103-.1214.2051-.1619.3282-.1619.4103-.4452.6563-.6071.9845-.85 1.4358-.2428.4513-.3238.7385-.7285 1.2718-.2429.2461-.4452.5333-.6476.7794-.0405.0411-.1214.0821-.1619.1231-1.1333.8205-2.2261 1.5179-3.3594 2.1743Zm1.2142-.2461c.0405 0 .1215-.0821.1215-.0821.0404 0 .0809-.041.1214-.041.0405-.041.1214-.041.1619-.0821-.0405 0-.081.0411-.1619.0821-.081.041-.1619.1231-.2429.1231ZM7.80982 11.0767c-.08095.2871-.80949 1.0666-.93091 1.4768 1.13329-1.3127 1.17376-1.2717.93091-1.4768Z" clip-rule="evenodd"/>
  <path fill="#FFB142" fill-rule="evenodd" d="M.68807 26.3378c.08095-.3282.161899-.8615.283324-1.1487.323796-.6564.323796-1.6.607116-2.3384.04048-.1641.12143-.4102.20238-.6564.20237-.4102.28332-1.0256.52617-1.4359.08095-.2461.1619-.4102.24285-.5743.28332-.7795.56664-1.5589.97139-2.2153l.04048-.1231.04047-.082c.72855-1.1898 1.29519-2.2564 1.82136-3.241l.44523-.6974c.1619-.2462.24284-.4513.20237-.4923.1619-.2872.3238-.5743.4857-.8205-1.90232 2.3794-3.39988 5.1281-4.4927 7.9588-.04047-.0821-.12142.082-.20237.3282-.1619.5743-.40475 1.1076-.52617 1.682-.20238.4923-.364276 1.0666-.445226 1.641-.080949.3692-.161899.6974-.242848 1.0666-.121424.3282-.161899.7795-.242849 1.1487 0 .1641-.040474.2461-.040474.3282-.121425.2872-.161899.7384-.202374 1.1897 0 .1231-.040475.2872-.040475.3692-.0404745.1641-.0809493.3282-.121424.4513v1.3948c0 .041.0404747.0821.0404747.0821.0404748.041.0404748.041.0404748-.0821.0404745-.082.0809495-.2051.0809495-.3692.080949-.2051.040475-.5743.080949-.8615v-.2872c.08095-.2051.121425-.4513.161899-.8205.040475.1641 0 .2462-.040474.3282 0 .041-.040475.0821-.040475.1231v-.041c0-.0411.040475-.0411.040475-.0821.040474-.082.080949-.1641.080949-.2872.161899-.3282.121424-1.0256.242848-1.4358ZM50.8785 10.7074c-.6071-.94357-1.2547-1.39484-1.7808-1.80509.5666.45127 1.2142 1.39479 1.7808 1.80509Zm3.115 4.5127c.2023.3282.4047.7385.6071 1.1487.1214.1641.2023.4103.2833.4923.1619.2051.1214-.041-.0405-.2872-.4047-.7794-.7285-1.5999-1.2142-2.1743-.0405-.082-.1214-.1641-.2024-.2871-.1619-.2462-.3238-.4513-.4047-.4513-.081-.041.0809.2051.1619.4102.2833.3693.5666.8205.8095 1.1487ZM10.1174 8.77927c-.0809 0-.16187.08204-.2833.16409-.08095.08205-.20237.20513-.28332.3282.12142-.08205.20237-.12307.28332-.20512.2024-.08205.3238-.24615.2833-.28717ZM8.90241 10.051c.04048-.041.04048-.08202.08095-.16407-.08095.04103-.20237.16407-.28332.20517 0 0-.08095.1641 0 .123 0 0 .12142-.123.20237-.1641ZM54.803 43.8553c-.081.082-.081-.0821-.2024.2461-.0405.0821-.0405.1641 0 .1641.0405-.041.1214-.1641.2024-.2872.0405-.123.0809-.2461 0-.123Zm2.2672-19.0765c.0809.0411 0-.3282-.0405-.5333l-.2428-1.2717c-.1214-.2462-.1619-.2052-.1619.041l.2428 1.2307c.081.3282.1619.5333.2024.5333ZM43.875 6.52289l.1214.12307-.0404-.12307h-.081Z" clip-rule="evenodd"/>
  <path fill="#fff" d="M31.49 48.409V31.1787h5.7069l.85-6.728H31.49v-4.3076c0-1.9282.5262-3.282 3.2784-3.282h3.5213v-6.0306c-.6071-.0821-2.7118-.2461-5.1402-.2461-5.0594 0-8.5402 3.1178-8.5402 8.9023v4.964h-5.707v6.728h5.7475V48.409H31.49Z"/>
</svg>
