<svg xmlns="http://www.w3.org/2000/svg" width="58" height="59" fill="none">
  <path fill="#FFB142" fill-rule="evenodd" d="M31.3693 58.2959c.2834-.123 1.3357-.2051 1.7-.3692-1.7404.1231-1.7404.0821-1.7.3692ZM.645861 27.7326c-.202382 1.1077-.080952 1.8871 0 2.5435-.080952-.7384.161906-1.8871 0-2.5435ZM28.1289 58.2549c.0404.041.2023.082.3238.082.1214 0 .2833 0 .4452-.041-.1619-.041-.2429-.041-.3238-.082-.2429 0-.4048 0-.4452.041Zm1.74 0c-.081.041-.081.041-.1619.082.0809 0 .2428.0411.3642.0411 0-.0411.1619-.0411.081-.0821-.0405 0-.2024 0-.2833-.041ZM32.6628.492284c.9714.205123 2.0643.451271 3.0357.697416.3642.12308.769.24615 1.1332.36922.85.12308 1.6595.6564 2.4285.90254l-.0405-.04102c.4048.20512.7691.3282 1.1738.53332.3643.12307.8095.41024 1.1333.53332.6476.36922 1.2952.69742 1.8214 1.06664.3238.20512.5261.36922.7285.45127.4857.32819.9309.65639 1.4571 1.02561.2024.08205.4857.36922.6476.45127.1619.08205.2833.1641.3643.20512-.2024-.28717-.5667-.57434-.9309-.82049l-1.7405-1.18971c-.5261-.36922-1.0118-.73844-1.4975-.86152-.4048-.20512-.769-.41024-1.1333-.61536-.6071-.24615-1.3357-.69742-1.9833-.86152-.2428-.12307-.5261-.20512-.7285-.3282-.4452-.16409-.8905-.41024-1.2547-.45127-.1619-.04102-.3238-.12307-.4453-.1641-.1214-.04102-.2428-.08204-.4047-.12307-.1214-.04102-.2428-.08205-.3643-.08205-1.1333-.410244-2.307-.697416-3.4403-.861514-.3238-.041024-.4857-.041024-.4857.041025 0 0 .2024.082049.5261.123073ZM43.5101 4.55372c.1214.04102.2428.1641.4047.28717-.1619-.12307-.2833-.20512-.4047-.28717Zm9.5538 42.00918c-.0405.041-.0405.082-.0405.082l.0405-.082Z" clip-rule="evenodd"/>
  <path fill="#FFB142" fill-rule="evenodd" d="M56.9486 34.2965v-.041c.1215-.7384.2429-1.5179.1619-2.3384-.0405.041-.0405.1231-.0809.2051v-.4923l-.0405-.123v-.1231c0-.6154 0-1.2718.0405-1.9282 0-.123-.0405-.2051-.081-.3692-.1619-1.8051-.4857-3.6922-.9714-5.4562-.0405-.1231-.1214-.2872-.1619-.4103-.4452-1.5179-.9309-2.9127-1.538-4.4306-.0405-.0821-.1619-.2462-.2024-.3282-.0809-.1641-.1214-.2872-.1619-.4103-.0404-.2461-.1619-.4923-.3643-.7384-.4857-.9436-.8904-1.9692-1.538-2.6256-.85-1.0666-1.8214-2.4615-2.8332-3.4871-.4857-.5333-.8095-1.1077-1.2952-1.59995-.4857-.45127-.5667-.28717-1.2952-.86152-.769-.57434-1.4976-1.27176-2.3475-1.8461l-.0405.08205c0-.04103-.0405-.12308.0405-.08205l-.3238-.24615-.0405.08205c-.3643-.24615-.6881-.49229-1.0119-.69742-.0809-.04102-.2428-.08205-.3643-.1641l-.1214-.04102-.0809-.08205c-.2833-.24615-.6881-.36922-.85-.57434.2024 0 .8095.36922.8905.28717-1.1333-.73844-1.8619-.98459-2.3476-.98459-.2428-.12308-.5666-.28717-.5262-.3282.2024-.1641-.3238-.32819-.9713-.53332-.5262-.1641-.6881-.12307-.6881 0-.1619-.08205-.2429-.08205-.3643-.1641-.1619-.08205-.2833-.12307-.4047-.16409l.0404.04102c-.1619-.08205-.2833-.12307-.4047-.1641-.4452-.1641-1.1738-.36922-.9309-.49229.2023-.08205-.1214-.20513-.6476-.36922-.4452-.12308-.8905-.3282-1.3762-.28718.5262.1641 1.1738.4923.9714.61537-.2428-.04102-.4857-.12307-.769-.1641-.1619-.16409-.2833-.28717-.5262-.45127-.0404-.08204-.1214-.12307-.3642-.20512-.0405-.1641-.1619-.36922-.4453-.53332.2429 0 .5262.04103.8095.08205.85.1641 1.6595.41025 2.388.73844.4453.24615 1.0119.41025 1.5786.4923.7285.32819 1.4571.61537 2.1856.94356 1.8214.86152 3.5213 1.84611 5.1403 2.8307h-.0405c.9309.57434 1.7404 1.43586 2.6309 2.13328.3642.20512.769.65639 1.1737 1.06664.1215.12307.2834.24614.4048.41024.2833.24613.5666.57433.8499.90253.85 1.0667 1.6595 2.0102 2.3881 3.0358-.0405-.082-.0405-.082-.081-.1641l.0405.0411.0405.123c.2428.3282.4857.7795.7285.9846l.1214.1641.081.1641c.3642.6564.6476 1.3949 1.0118 1.8461.081.1641.1215.1641.2024.3282.2024.4513.4048.9026.6071 1.2308.0405.082.0405.082.081.082.0405.041.0405 0 0-.1231-.2429-1.0666-.7286-2.1332-1.4571-3.2819-.2024-.2872-.4452-.6975-.6476-1.0256-1.2547-2.3384-2.8737-4.0205-4.6546-5.49734-.2428-.24615-.4452-.45127-.6476-.53332-.2428-.20512-.4857-.41025-.6476-.45127-.2428-.20512-.4452-.36922-.6071-.4923l-.9714-.86151c-1.4166-1.27176-3.0761-2.21533-4.776-2.9948-.769-.36922-1.619-.61536-2.4285-1.06663-.6071-.3282-1.3761-.6564-1.1333-.24615.0405.08205-.4857-.08205-.8095-.1641-.6071-.1641-1.3357-.45127-1.9832-.57434-.081 0-.2024-.04103-.2429-.08205-.1214-.04103-.2428-.08205-.4452-.08205-.081 0-.1619 0-.2833-.08205-.5667-.205125-1.1738-.369223-1.7404-.492297-.2024-.041024-.4453-.123074-.7691-.164098-.0404-.082049-.1619-.123074-.4452-.164098-.1619-.041025-.2428-.041025-.4452-.08205h-.1619.1214c-.0809-.082049-.2024-.123073-.5666-.123073h-.0405C29.102 0 28.9401 0 28.6973 0c-.081 0-.2429.0410246-.2833 0-.6476.0410246-1.3357.164098-1.9833.246147-.3643-.041024-.769 0-1.1333.041025-1.5785.082049-3.1166.328197-4.6951.697418V.943565c-.688 0-1.5785.369225-2.388.574345-.3643 0-.8095.1641-1.1737.3282-.2429.04102-.5667.12307-.931.28717-.4047.1641-.2428.20512-.4857.32819-.2023.08205-.3642.20513-.4047.28718-.1214.08205-.6476.32819-.4857.36922.0405.04102.1619.04102.4452 0 .1214.08205.4048.04102.8905-.08205l.0809-.04103c-.0405 0-.0809.04103-.0809.04103.3238.04102.6476.12307.9714.1641.0404.12307.1618.1641.5666.08205-.2429.12307-.4452.28717-.6476.45127-.6071.36922-1.4166.65639-1.7404 1.10766-.8095.61537-1.7809 1.18971-2.4285 1.88713l.0405-.04102c-.3643.41024-1.0119.77946-1.2952 1.18971-.1619.1641-.4857.41024-.6476.65639l-.0405.08205-.1214.08205c-.3643.36922-.72855.73844-1.13329 1.10766-.4857.41023-.97141.82053-1.37615 1.39483-.52617.6974-1.49756 1.8051-2.06421 2.7076-.56664.9436-1.45709 1.8461-1.74041 2.8718l.04047-.0411-.04047.0411c-.56665 1.0256-1.09282 2.0922-1.53804 3.1588-.3238.6564-.56664 1.3539-.76902 2.1743-.04047.2052-.12143.3693-.16191.5744-.52617 1.4358-.9309 2.9948-1.052328 4.5947-.08095.8205-.202376 1.559-.040477 2.2564v.2461c-.08095.2052-.080955.4513-.080955.7385-.161899.7384.000003 1.5589.040478 2.3384l.040477.041s-.000003 0-.040477-.041c-.08095.3282.000004.8205.080954 1.2307-.040475.2872.121418.8205.121418 1.2308.04048.082.04048.1641.04048.2461-.04048.1641-.00001.4513.08094.7795.04048.4923.20237 1.0256.40475 1.3948.08095.3692.1619.6974.3238.9846.12143.4513.24285.8205.36427 1.2307.24285.6154.44522 1.4769.76902 2.0102.12142.2462.20238.5334.28333.7385.20237.4513.32379.9025.56664 1.1897.08095.1641.1619.3282.20237.4513.04048.123.12143.2461.20238.3692.08095.1231.12142.2051.20237.3282.52617 1.1076 1.1333 2.1333 1.86184 3.0768.20238.2462.3238.3692.36427.3282.04048-.041-.04047-.2461-.20237-.4923-.52617-.8615-1.1333-1.8051-1.65947-2.6255-.1619-.3282-.36427-.6975-.56664-1.0667-.52617-.6974-.68808-1.641-1.09282-2.3794v.082c-.1619-.4102-.28332-.7794-.44522-1.1897-.16189-.3282-.28332-.8615-.44522-1.2307-.04047-.2051-.12142-.3692-.1619-.5744 0 .0411.04047.0821.04047.0821.04047.082.08096.1231.12143.2051 0-.082-.04048-.1641-.04048-.2461v-.0411c0-.082 0-.2051-.04047-.3282.04047-.1641-.04047-.4512-.12142-.7794h.04047v-.2462c.24285.9026.52617 1.7641.84996 2.6256.28333.8205.68808 1.6.97141 2.5025.20237.6564.52617 1.4769.60712.9846.04047-.0821.28331.4102.44521.6974.3238.5744.64759 1.2308 1.01187 1.8461.04047.041.12143.1641.12143.2462.04047.123.12142.2461.24285.4102.04047.041.12142.1231.1619.2462.80949 1.6409 1.82135 3.1589 3.35939 4.3896.20238.1641.44518.4513.60708.6154.2429.4102.6476.7794 1.0524 1.1076 1.2142 1.0667 2.4285 2.0102 3.8046 2.8717v.0411c.4857.4923 1.3762.8615 2.0642 1.3128.2429.2461.6881.4512 1.0524.6153.2023.1641.4857.2872.8499.4513.4048.2051.3238.041.5667.1231.2024.082.4047.123.4857.082.1214 0 .688.2051.6071.0821 0-.0821-.081-.1641-.3238-.2872-.0405-.1231-.2833-.3282-.6881-.5744l-.0809-.041c.0405 0 .0809.041.0809.041-.1619-.2461-.3642-.5333-.5666-.8204.0405-.1231 0-.2872-.5667-.6154-.0404-.1231-.1619-.2462-.2023-.3692.4047.2051.8499.3692 1.2547.5333.4047.1641.688.1231.688.041.1215-.082-.3642-.2461-.6475-.4102-.3238-.1641-.6072-.3693-.6072-.4513-.0404-.1231.4453.082.6881.1231.85.2051 1.9428.7794 2.9142.9025.4452.1231 1.0119.3692 1.4166.3282.6476.1231 1.3357.3692 1.9023.3282-.0405-.041-.1214-.041-.1619-.082h.0405l.1214.041c.6071.082 1.3357.2461 1.8618.1641l-.0809-.041h.0809c.9714.041 1.9833.3281 3.0761.123.85-.1231 2.3476-.2051 3.3594-.4102 1.0524-.2462 2.3071-.2872 3.238-.7795h-.0809c.0404-.041.0404 0 .0404 0 2.0238-.5333 4.007-1.3128 5.8689-2.3794 1.2142-.5744 2.4284-1.2718 3.5213-2.1333.0404.041.1619.041.3642-.1231l.1215-.123-.1215.123c.1215 0 .2429 0 .3643-.082-.2833.2051-.5666.4923-.85.6564h.0405c-.2833.1641-.7285.4923-1.0118.6154-.6476.2461-1.3357.8615-2.0643 1.2307-.1619.082-.4047.2051-.6071.2872-.4047.123-.9309.4923-1.3761.6153-.2429.0821-.4048.1641-.5667.2462-.7285.3692-1.4571.6974-2.2665.8615l-.1215.041-.0809.041c-2.3071.5744-4.007 1.1898-5.7879 1.6 3.3999-.3692 6.6783-1.3948 9.7139-2.8717.2024-.1231.4048-.2051.6476-.3282.5667-.1231 1.1738-.5333 1.7404-.9436.3238-.2051.6072-.3692.931-.5743.3237-.1641.688-.4513.9713-.6154.1215-.082.2024-.1641.2834-.2051.2833-.1231.6476-.4103.9714-.6974.0809-.0821.2428-.1641.2833-.2462.1214-.082.3238-.1641.4047-.2461.1619-.1641.2833-.2872.4452-.4103.081-.041.2024-.1231.4048-.3282h.0405c.0404 0 .1619-.082.3642-.2461.0405-.0821.1619-.2051.2024-.2051.9309-1.1077 1.7412-2.3795 2.5103-3.6102.2833-.4513.5658-.9025.7682-1.3538.2023-.2872.4047-.6154.5261-.9026.081-.123.2024-.2461.2834-.3692.5666-1.5179 1.2142-3.1178 1.4571-4.5947.2023-.6975.5666-1.4769.4856-2.0513.1619-1.0256.4453-2.1332.4048-3.0768l-.0405.082ZM51.525 12.6356c-.0405 0-.0405 0 0 0ZM16.0692 2.58455s-.0405-.04103.0404-.08205c.0405-.04103.081-.04103.1215-.04103-.081.04103-.1619.12308-.1619.12308ZM19.5905 58.378s0 .041-.081.041c-.0405 0-.0809-.041-.1214-.041h.2024Zm35.4153-25.3942c.0405-.6154.081-1.2308 0-1.8051.1215.4923.0405 1.1487 0 1.8051Zm.0405-11.7331c-.0405-.041-.0809-.2051-.1214-.2051 0-.082-.0405-.1641-.0405-.2461.081.1641.1214.3282.1619.4512Zm-.2024 3.5692c0 .041 0 .123-.0404.082 0 0 0-.041.0404-.082Zm-1.2142 3.6512c0 .123.0405.2051.0405.2871 0 .2462-.0405-.041-.081-.1641 0 0 .0405 0 .0405-.123Zm-.3643 4.3486v.082-.082Zm-5.8283 15.2611c.0404-.082.0809-.1641.1619-.2461.0404-.4103.5666-1.1898.9714-2.0513-.1619.6154-.5667 1.3538-.9714 2.0513 0 .041-.0405.082 0 .123-.081 0-.1215.0411-.1619.1231Zm-35.9416-.4102c-.0405 0-.0809-.0821-.1214-.0821v-.041c-.081-.0821-.0405-.041-.081-.0821 0 0 .0405 0 .081.0821h.0405l.0404.041c.0405.041.0405.041.0405.0821Zm-4.89743-1.4769c0-.0411-.04047-.0411-.04047-.0411.04048.0411.08094 0 .04047-.041v-.041l.04047.041c-.24284-.4923-.48569-1.1897-.24285-1.1076.24285.3692.52618.9435.84998 1.3127.16189.2052.3238.4513.4857.6975.24285.6153.28332.7384.16189.9435-.1619-.2871-.40474-.5333-.60712-.9025-.12142-.2872-.40475-.6154-.6476-.9436 0 .041-.04047.041-.04047.0821Zm.40474-7.5075c-.04047-.0411-.08094-.0411-.12141-.0411-.04048.1641-.08095.3282-.12142.4103.04047-.1641.04047-.4103.12142-.4103 0-.123.04047-.2051.04047-.3281.04048.123.04047.1641.08094.3692Zm-.89043 4.9639s0-.041-.04048-.041c.08095.1231.20238.3282.28333.4513h-.04048c-.04047-.1231-.12142-.2462-.20237-.4103Zm-.44523-2.6665c-.08095-.1231-.08094-.1641-.12142-.2052 0-.041-.04047-.123-.04047-.1641.04047.1231.12142.2462.16189.3693Zm-.89045-3.6923c-.04047 0-.08094-.041-.12141-.123v-.0821c.04047.1231.12141.2462.12141.2051Zm-2.50942-2.3384c0-.041-.04048-.123-.04048-.123 0 .082.00001.082.04048.123Zm.72854 2.7077c-.04047 0-.04047.2051.04048.4102-.08095-.1231-.12142-.2872-.1619-.4513 0-.082.08095 0 .12142.0411Zm1.33567-1.559c-.08095-.123-.12142-.2461-.20237-.5743.08095.2461.12142.4102.20237.5743Zm.20238 1.5179c0-.2051-.04049-.3282.04046-.3692-.08095 0-.08094.1641-.04046.3692Zm-2.83323-7.7536v.041c0 .1641-.04048.2872-.04048.4103v.123-.082c0-.1641.04048-.2872.04048-.4103v-.082Zm-.44523 4.5127c.04048 0 .04047 0 .08094-.041 0 .082.00001.1641.04048.2461-.08095-.082-.12142-.1641-.12142-.2051-.08095 0-.1619-.1231-.24285-.2872.08095.041.1619.1641.24285.2872Zm3.60225 7.7126c.08095.1641.08095.2462.1619.3692.04047.1641.12142.3282.16189.4103v-.0821c.04048.1641.08096.2872.16191.4103.20237.4513.60712 1.1076.32379 1.0256-.08095-.041-.08095 0-.08095.041-.08095-.1641-.16189-.3282-.24284-.4513 0-.2051-.28332-.5743-.44522-.9435-.04048-.2462-.12143-.5333-.24285-.8205.08095.082.16189.082.20237.041ZM30.9639 4.30758c0 .08205-.1619.04102-.1619.08205 0-.04103.1619-.04103.1619-.08205Zm-1.8619-.24615h-.1619.081c.1214-.04102.3238-.04102.5261-.04102-.1214.04102-.3642 0-.4452.04102Zm.4048.28718h-.2834.2834ZM49.5013 40.7374c0-.041.0809-.1231.0809-.1641-.0405.0821-.1214.2462-.0809.1641Zm.0404.2051c-.0404 0-.0404 0-.0404.0411 0-.0411.0404-.0411.0404-.0411 0-.041 0-.041 0 0Zm2.8738-8.328c0 .0821 0 .1231-.0405.2462 0-.1231 0-.1231-.0405-.1641.0405-.0821.081-.041.081-.0821Zm-.5262-14.2765c0-.041-.0405-.041-.0405-.0821 0-.082-.0405-.082-.0405-.082 0 .041.0405.082.081.1641Zm-.1214-2.7897c0 .041 0 .041 0 0-.0405-.041-.0405 0 0 0Zm-8.8235-7.8767c-.2024-.12308-.4048-.20513-.5262-.28718.1214.04103.2833.12308.5262.28718Zm-1.6595-.77947c.0405 0 .081 0 .1214.04102l.0405.04103c-.0405-.08205-.1214-.08205-.1619-.08205Zm.1619-.12308c.0405-.04102-.0809-.16409-.2428-.28717.1619.12308.2833.20513.2428.28717Zm-3.1975-1.80508c.0405.04103.1214.04103.1214.08205-.0809-.04102-.2428-.08205-.3642-.12307.1619 0 .2428.04102.2428.04102Zm-2.8332-1.72303c.1214.04103.2428.04103.4452.08205h.0405c-.1215-.04102-.3643-.08205-.4857-.08205ZM30.1139.246147c-.0405 0-.0405 0-.081.041025l.081-.041025Zm-4.776.164099h.0809-.2833.2024ZM6.15285 14.6047c-.04047.0411-.08095.0411-.12143.0411.08095 0 .12143-.0411.12143-.0411ZM.891142 32.0402c0 .041-.040477.082-.040477.041v-.082c.040474.082.040477.082.040477.041Zm.647588 5.2922c.04047 0 .04047 0 0 0Zm2.95466 5.7844c-.08095-.2051-.1619-.3692-.24285-.5743.04047.041.08095.082.08095.1231.04048.123.12143.3692.20238.5333 0 0-.04048-.041-.04048-.0821Zm1.9023 3.7333c-.48569-.6975-.89044-1.4769-1.13328-2.2154-.04048-.082-.08095-.2051-.12142-.2871.08095.123.1619.2871.20237.4102.08095.2051.28331.5333.44521.7795.04048.041.08096.082.12143.1231.60713.8204 1.13329 1.682 1.90231 2.4204 0 .041-.04047.041-.04047.082-.24284.0821-.8095-.6153-1.37615-1.3127Zm1.65947-5.4973c.1619 0 .20238-.2052.12143-.5744.04048.2462.08095.4513.12142.6564.12143.4103-.12143.0821-.24285-.082Zm.3238 5.087c.04048 0-.04048-.1231.04047-.041.08095.082 0 .082.04048.1641 0 0-.04047-.041-.08095-.1231Zm1.90234.041c.0404-.041.1619.0821.1619.0821-.0405 0-.1619-.1231-.1619-.0821Zm.8095 1.2308c.0809.041.2428.2461.3238.2461.0404.0411 0 0 0 .0411.0404.041.1214.123.1214.123l-.0405-.041c-.1214-.082-.2833-.2051-.4047-.3692Zm.4047 5.5383-.0405-.041c.0405.041.1619.1231.2024.1641l-.1619-.1231Zm1.1333-.4513c0-.041 0-.041 0 0-.2024-.2461-.3238-.4102-.4857-.6153l-.0405-.0411.0405.0411c.4452.3282.4857.4512.4857.6153.0405 0 .0405.041.081.0821-.0405-.0411-.0405-.0411-.081-.0821Zm1.9833-3.405.2428.082c-.0405 0 0 .0821 0 .1231-.0809-.082-.1619-.1231-.2428-.2051Zm4.4522 3.5281c.1214.041.1619.041.2428.082-.0809-.041-.0809 0-.2428-.082Zm1.4571.7795c.0405.041.0405.041 0 0h-.0405c-.1214.041-.3643 0-.6071-.0821-.1214-.041-.2429-.082-.3643-.1641h-.0405c-.1214-.041-.1214-.041-.2023-.082.0809.041.1619.082.2428.082.1214.041.2429.1231.3643.1641.2024.041.4047.041.6071.0821h.0405c-.1214-.1231-.1619-.2052-.2429-.2872 0 0-.0404 0-.0404-.041h.0404s-.0404-.0411-.0809-.0821c-.2833-.2051-.5667-.3692-.769-.5743-.2834-.1641-.6072-.4103-.6072-.4103s.3238.2052.5667.3282c.0405.0411.0405.0411.0809.0411.4048.2051.6072.4102.7691.5743.0404.041.0809.041.1214.082l-.0405-.041c.1619.2462.3238.3692.2024.4103Zm.7285.123-.3238-.123c.1215.041.2429.123.3643.1641l-.0405-.0411Zm3.157 1.3949c.0405 0-.0809-.041-.0809-.0821.0405.0411.0809.0411.1619.0821h-.081Zm3.4809.6974c-.1215-.0821-.2834-.1641-.4453-.2051.1215 0 .3239 0 .5262.041.1215.041.2024.1231-.0809.1641Zm2.2261-1.7641c.0405.0411.1214.0411.2024.0411-.1215-.0411-.2024-.0411-.2834-.0411h.081Zm.2833.4103c.0405 0 .0405 0 0 0 0 .041-.0809.041-.1619.041.081 0 .081 0 .1619-.041Zm4.5332 2.4204c-.0405.0411-.0405.0821-.1214.0821.0404 0 .0809-.041.1214-.0821 0 0 .0809.0411.1619.0411-.081 0-.081-.0411-.1619-.0411Zm2.388-2.8307c-.1214.0411-.2429.0821-.2833.0411h-.081c.0405 0 .0405 0 .081-.0411v.0411h.1619c.0404-.0411.0809-.0411.1214-.0411Zm5.5045-2.5435c-.3642.1641-.688.3282-.8095.2462-.2023-.0411.2024-.2872.5262-.4923.1214-.0821.3238-.2052.2024-.2462-.2024.041-.5262.2872-.6881.2462.2833-.2052.6476-.3282.931-.5744-.081 0-.1215.041-.1215 0h-.0405.0405c.081-.041.1215-.041.1215 0 .0404-.041.1214-.082.1618-.1231.3643-.164.7691-.5333 1.1738-.6974.5667-.2871.9714-.6974 1.4571-1.1487h.0405l.0404-.041h-.0404c.3238-.4923-.1214-.082-.4048.1231l-.1214.082-.0809.0411c-.2429.041-.6072.4102-.85.4923.9309-.7795 1.9023-1.5179 2.7523-2.4205.0404-.041.1214-.1231.2023-.1641v.041c-.0404.1231.0405.0411.1215-.082.0404-.0821.1214-.1641.1214-.1641.1619-.1641.2833-.3282.2833-.4103 0-.1641.081-.3282.2024-.4923.2024-.123.5262-.4512.6881-.4102-.1215.2051-.1619.3282-.1619.4102-.4453.6564-.6072.9846-.85 1.4359-.2429.4513-.3238.7385-.7286 1.2718-.2428.2461-.4452.5333-.6476.7794-.0404.0411-.1214.0821-.1618.1231-1.0929.8205-2.2262 1.5179-3.3595 2.1743Zm1.2143-.2461c.0405 0 .1214-.0821.1214-.0821.0405 0 .081-.041.1214-.041.0405-.041.1215-.041.1619-.0821-.0404 0-.0809.0411-.1619.0821-.0809.041-.1619.1231-.2428.1231ZM7.80975 11.0767c-.08095.2871-.80947 1.0666-.93089 1.4768 1.09279-1.3127 1.17373-1.2717.93089-1.4768Z" clip-rule="evenodd"/>
  <path fill="#FFB142" fill-rule="evenodd" d="M.688076 26.3378c.08095-.3282.161892-.8615.283316-1.1487.323798-.6564.323798-1.6.607118-2.3384.04048-.1641.12143-.4102.20238-.6564.20237-.4102.28333-1.0256.52618-1.4359.08095-.2461.16189-.4102.24284-.5743.28332-.7795.56665-1.5589.9714-2.2153l.04046-.1231.04048-.082c.72855-1.1898 1.29519-2.2564 1.82137-3.241l.44522-.6974c.1619-.2462.24285-.4513.20238-.4923.16189-.2872.3238-.5743.4857-.8205-1.90232 2.3794-3.39989 5.1281-4.4927 7.9588-.04048-.0821-.12143.082-.20238.3282-.1619.5743-.40475 1.1076-.52618 1.682-.20237.4923-.364261 1.0666-.44521 1.641-.08095.3692-.161902.6974-.242851 1.0666-.121425.3282-.161902.7795-.242851 1.1487 0 .1641-.040478.2461-.040478.3282-.121424.2872-.161899.7384-.202373 1.1897 0 .1231-.040478.2872-.040478.3692-.0404744.1641-.0809442.3282-.121419.4513v1.3948c0 .041.0404772.0821.0404772.0821.0404748.041.0404773.041.0404773-.0821.0404745-.082.0809425-.2051.0809425-.3692.080949-.2051.040479-.5743.080954-.8615v-.2872c.08095-.2051.121422-.4513.161897-.8205-.040475.1231-.04048.2051-.080955.2872 0 .041-.040465.082-.040465.1231v-.0411c0-.041.040465-.041.040465-.082.040475-.0821.04048-.2051.080955-.2872.161899-.2872.121429-.9846.283328-1.3948ZM50.8355 10.7074c-.6071-.94357-1.2547-1.39484-1.7809-1.80509.6072.45127 1.2143 1.39479 1.7809 1.80509Zm3.1188 4.5127c.2024.3282.4048.7385.6072 1.1487.1214.1641.2023.4103.2833.4923.1619.2051.1214-.041-.0405-.2872-.4047-.7794-.7285-1.5999-1.2142-2.1743-.0405-.082-.1215-.1641-.2024-.2871-.1619-.2462-.3238-.4513-.4047-.4513-.081-.041.0809.2051.1618.4102.3238.3693.5667.8205.8095 1.1487Zm-43.876-6.44083c-.08097 0-.16191.08205-.28333.1641-.08095.08205-.20238.20512-.28333.3282.12143-.08205.20238-.12308.28333-.20512.20237-.08205.32383-.24615.28333-.28718ZM8.86329 10.051c.04048-.041.04048-.08202.08095-.16407-.08094.04103-.20237.16407-.28331.20517 0 0-.08095.1641 0 .123.04047 0 .16189-.123.20236-.1641ZM54.7639 43.8553c-.0809.082-.0809-.082-.2023.2461-.0405.0821-.0405.1641 0 .1641.0404-.041.1214-.1641.2023-.2871.081-.1231.081-.2462 0-.1231Zm2.2633-19.0765c.0809.0411 0-.3282-.0405-.5333l-.2428-1.2717c-.1214-.2462-.1619-.2052-.1619.041l.2428 1.2307c.081.3282.1619.5333.2024.5333ZM43.875 6.52289l.1214.12307-.081-.12307h-.0404Z" clip-rule="evenodd"/>
  <path fill="#fff" d="M34.6035 44.7169H22.5421c-5.3427 0-9.714-4.3897-9.714-9.8459V24.1225c0-5.4152 4.3308-9.8459 9.714-9.8459h12.0614c5.3427 0 9.714 4.3896 9.714 9.8459V34.871c-.0405 5.4152-4.3713 9.8459-9.714 9.8459Zm-12.0614-28.225c-4.1689 0-7.5283 3.4461-7.5283 7.6306V34.871c0 4.2255 3.3998 7.6305 7.5283 7.6305h12.0614c4.1689 0 7.5283-3.446 7.5283-7.6305V24.1225c0-4.2255-3.3998-7.6306-7.5283-7.6306H22.5421Z"/>
  <path fill="#fff" d="M28.5704 38.235c-4.7761 0-8.6212-3.9384-8.6212-8.7383 0-4.8409 3.8856-8.7382 8.6212-8.7382 4.776 0 8.6211 3.9384 8.6211 8.7382 0 4.841-3.8451 8.7383-8.6211 8.7383Zm0-15.3022c-3.5618 0-6.476 2.9538-6.476 6.5639 0 3.6102 2.9142 6.564 6.476 6.564s6.476-2.9538 6.476-6.564c0-3.6101-2.9142-6.5639-6.476-6.5639Zm8.5035-.123c.9835 0 1.7808-.8082 1.7808-1.8051 0-.997-.7973-1.8051-1.7808-1.8051-.9836 0-1.7809.8081-1.7809 1.8051 0 .9969.7973 1.8051 1.7809 1.8051Z"/>
</svg>
