<svg xmlns="http://www.w3.org/2000/svg" width="24" height="24" fill="none">
  <path fill="#000" d="M12.0029 2c-4.17478 0-5.39573.00431-5.63306.024-.85673.07123-1.38984.20615-1.97063.49538-.44759.22231-.80058.48-1.14897.84124-.63447.65876-1.01899 1.46923-1.15819 2.43261-.06768.46769-.08737.56308-.09137 2.952-.00153.79631 0 1.84427 0 3.24997 0 4.1723.00462 5.3923.02461 5.6293.06922.8338.19996 1.3584.47682 1.9323.52911 1.0984 1.53965 1.923 2.73014 2.2307.41222.1062.8675.1647 1.45198.1923.24764.0108 2.77168.0185 5.29727.0185 2.5256 0 5.0511-.0031 5.2926-.0154.6768-.0318 1.0698-.0846 1.5043-.1969.5903-.1514 1.1404-.4299 1.612-.816.4715-.3861.8531-.8705 1.1181-1.4194.2715-.56.4092-1.1046.4715-1.8949.0135-.1723.0192-2.9195.0192-5.6631 0-2.74398-.0061-5.48614-.0197-5.65845-.063-.80307-.2007-1.34307-.481-1.91384-.2299-.46723-.4852-.81616-.8559-1.17293-.6616-.632-1.4706-1.01661-2.4347-1.15569-.4671-.06754-.5602-.08754-2.9504-.09169h-3.2546Z"/>
  <path fill="url(#a)" d="M12.0029 2c-4.17478 0-5.39573.00431-5.63306.024-.85673.07123-1.38984.20615-1.97063.49538-.44759.22231-.80058.48-1.14897.84124-.63447.65876-1.01899 1.46923-1.15819 2.43261-.06768.46769-.08737.56308-.09137 2.952-.00153.79631 0 1.84427 0 3.24997 0 4.1723.00462 5.3923.02461 5.6293.06922.8338.19996 1.3584.47682 1.9323.52911 1.0984 1.53965 1.923 2.73014 2.2307.41222.1062.8675.1647 1.45198.1923.24764.0108 2.77168.0185 5.29727.0185 2.5256 0 5.0511-.0031 5.2926-.0154.6768-.0318 1.0698-.0846 1.5043-.1969.5903-.1514 1.1404-.4299 1.612-.816.4715-.3861.8531-.8705 1.1181-1.4194.2715-.56.4092-1.1046.4715-1.8949.0135-.1723.0192-2.9195.0192-5.6631 0-2.74398-.0061-5.48614-.0197-5.65845-.063-.80307-.2007-1.34307-.481-1.91384-.2299-.46723-.4852-.81616-.8559-1.17293-.6616-.632-1.4706-1.01661-2.4347-1.15569-.4671-.06754-.5602-.08754-2.9504-.09169h-3.2546Z"/>
  <path fill="#fff" d="M11.9986 4.61572c-2.00505 0-2.25669.00877-3.0442.04462-.78598.036-1.32247.16046-1.7919.34307-.48558.18862-.89749.44093-1.30786.85154-.41067.41046-.66292.82246-.85211 1.308-.18303.4697-.30762 1.00646-.343 1.79231-.03507.78769-.0443 1.03954-.0443 3.04504 0 2.0056.00893 2.2565.04461 3.0442.03615.7861.16058 1.3228.343 1.7923.18872.4857.44097.8977.8515 1.3082.41021.4107.82212.6636 1.30739.8523.46974.1826 1.00639.307 1.79221.343.78751.0359 1.03899.0447 3.04396.0447 2.0052 0 2.2561-.0088 3.0436-.0447.7859-.036 1.3231-.1604 1.7928-.343.4854-.1887.8967-.4416 1.3069-.8523.4107-.4105.6629-.8225.8521-1.308.1815-.4697.3061-1.0065.343-1.7924.0354-.7876.0446-1.0387.0446-3.0443 0-2.0055-.0092-2.25719-.0446-3.04489-.0369-.78615-.1615-1.32276-.343-1.7923-.1892-.4857-.4414-.8977-.8521-1.30816-.4107-.41077-.8213-.66307-1.3074-.85154-.4706-.18261-1.0074-.30707-1.7934-.34307-.7875-.03585-1.0382-.04462-3.0439-.04462h.0023-.0002Zm-.6623 1.33077c.1966-.00031.4159 0 .6623 0 1.9713 0 2.2049.00708 2.9833.04246.7199.03293 1.1106.15323 1.3708.25431.3445.13385.5902.29385.8484.55231.2584.25846.4184.50461.5525.84923.1011.26.2215.65077.2543 1.37077.0353.77846.043 1.01233.043 2.98303 0 1.9708-.0077 2.2047-.043 2.9831-.0329.72-.1532 1.1108-.2543 1.3708-.1338.3446-.2941.59-.5525.8483-.2584.2585-.5037.4185-.8484.5523-.2599.1015-.6509.2215-1.3708.2545-.7782.0354-1.012.043-2.9833.043-1.9714 0-2.20501-.0076-2.98329-.043-.71984-.0333-1.11052-.1536-1.37092-.2546-.34454-.1339-.59064-.2939-.84904-.5524-.2584-.2584-.41836-.504-.55249-.8487-.10105-.26-.22148-.6508-.25425-1.3708-.03537-.7785-.04245-1.0123-.04245-2.9843 0-1.972.00708-2.20462.04245-2.98308.03292-.72.1532-1.11077.25425-1.37107.13382-.34462.29409-.59077.55249-.84924.2584-.25846.5045-.41846.84904-.55261.26025-.10154.65108-.22154 1.37092-.25462.68107-.03077.94501-.04 2.32099-.04153v.00184Zm4.6033 1.22616c-.1753 0-.3466.05198-.4923.14936-.1457.09739-.2592.2358-.3263.39774-.067.16195-.0845.34014-.0503.51204.0342.17191.1186.3298.2425.45372.124.12392.2818.2083.4537.24245.1719.03416.35.01657.5119-.05055.1619-.06712.3003-.18075.3976-.32651.0973-.14577.1492-.31713.1491-.49241 0-.48923-.3968-.88615-.8859-.88615v.00031Zm-3.941 1.03538c-2.0938 0-3.79142 1.698-3.79142 3.79227 0 2.0943 1.69762 3.7916 3.79142 3.7916 2.0939 0 3.791-1.6973 3.791-3.7916 0-2.09427-1.6973-3.79227-3.7911-3.79227h.0001Zm0 1.33077c1.3591 0 2.461 1.102 2.461 2.4615 0 1.3594-1.1019 2.4616-2.461 2.4616-1.3592 0-2.46095-1.1022-2.46095-2.4616 0-1.3595 1.10175-2.4615 2.46095-2.4615Z"/>
  <defs>
    <radialGradient id="a" cx="0" cy="0" r="1" gradientTransform="matrix(0 -19.8198 18.4349 0 7.29134 23.5442)" gradientUnits="userSpaceOnUse">
      <stop stop-color="#FD5"/>
      <stop offset=".1" stop-color="#FD5"/>
      <stop offset=".5" stop-color="#FF543E"/>
      <stop offset="1" stop-color="#C837AB"/>
    </radialGradient>
  </defs>
</svg>
