<svg width="16" height="18" viewBox="0 0 16 18" fill="none" xmlns="http://www.w3.org/2000/svg">
<path d="M13.55 7.9502H2.35C1.46634 7.9502 0.75 8.66654 0.75 9.5502V15.1502C0.75 16.0339 1.46634 16.7502 2.35 16.7502H13.55C14.4337 16.7502 15.15 16.0339 15.15 15.1502V9.5502C15.15 8.66654 14.4337 7.9502 13.55 7.9502Z" stroke="#AFAFB3" stroke-width="1.5" stroke-linecap="round" stroke-linejoin="round"/>
<path d="M3.9502 7.95V4.75C3.9502 3.68913 4.37162 2.67172 5.12177 1.92157C5.87191 1.17143 6.88933 0.75 7.9502 0.75C9.01106 0.75 10.0285 1.17143 10.7786 1.92157C11.5288 2.67172 11.9502 3.68913 11.9502 4.75V7.95" stroke="#AFAFB3" stroke-width="1.5" stroke-linecap="round" stroke-linejoin="round"/>
</svg>
