<svg width="24" height="24" viewBox="0 0 24 24" fill="none" xmlns="http://www.w3.org/2000/svg">
<path d="M19.6309 7.27971L12.2158 9.93987C12.2097 9.93992 12.2033 9.94106 12.1973 9.93987L12.0742 9.91545L11.9971 9.93791L7.95801 8.59514L7.2998 8.37639V15.9897H7.95215C9.07291 16.2143 10.2104 16.3433 11.3525 16.3735L11.8496 16.3803H12C14.3592 16.3803 16.3251 16.042 17.7334 15.5639C18.4356 15.3255 19.0172 15.0461 19.4424 14.7436C19.8438 14.4579 20.2051 14.0797 20.2656 13.6147L20.2695 13.5834L20.2705 13.5522L20.2998 7.75237L20.3037 7.0385L19.6309 7.27971ZM11.7158 2.1508L2.60645 5.53166L1.2627 6.02971L2.625 6.47502L6.84473 7.8549L7.04492 7.92033L7.23145 7.82365L10.6816 6.02287L10.6885 6.01897L10.6963 6.01506C10.7292 5.99653 10.767 5.98859 10.8047 5.99162C10.8425 5.99466 10.8786 6.00894 10.9082 6.03264C10.9377 6.05632 10.9595 6.08827 10.9707 6.12444C10.982 6.16064 10.9826 6.19946 10.9717 6.23576L10.9688 6.24358C10.9627 6.26469 10.9525 6.28425 10.9385 6.30119C10.9243 6.31825 10.9065 6.33228 10.8867 6.34221L10.877 6.34709L8.57715 7.55705L7.52734 8.10979L8.65625 8.476L11.9258 9.53557L12.0879 9.5883L12.248 9.53069L21.3975 6.27092L22.75 5.78947L21.3916 5.32658L12.0508 2.1469L11.8828 2.08928L11.7158 2.1508ZM6.90039 8.24944L6.55859 8.13518L4.39844 7.41545L3.74023 7.1967V13.4701C3.74029 13.9436 4.00927 14.3248 4.37207 14.6196C4.73108 14.9113 5.23832 15.1671 5.86426 15.4037V15.4047L6.21484 15.5444L6.90039 15.8188V8.24944ZM3.37012 7.05803L3.02637 6.94475L0.65625 6.16545L0.592773 6.14397C0.588984 6.14067 0.584531 6.13786 0.581055 6.1342C0.564762 6.11704 0.552307 6.09614 0.544922 6.07365L0.539062 6.0551L0.53125 6.03557L0.517578 5.97014C0.517578 5.952 0.522649 5.93458 0.52832 5.9174C0.538454 5.90054 0.549603 5.88451 0.564453 5.87151C0.583309 5.85501 0.60516 5.84238 0.628906 5.8344L0.636719 5.83147L0.645508 5.82854L11.7871 1.66447C11.8386 1.6483 11.8939 1.64878 11.9453 1.66545L23.3203 5.59319L23.3174 5.61272C23.3414 5.62102 23.3634 5.6344 23.3818 5.65178C23.4004 5.66921 23.4151 5.69078 23.4248 5.71428C23.4345 5.73768 23.4392 5.76318 23.4385 5.7885C23.4377 5.81368 23.4309 5.83809 23.4199 5.86076C23.3961 5.90634 23.3567 5.94113 23.3086 5.9594L20.9131 6.80901L20.5801 6.92619V7.46037L20.5098 13.9272C20.4014 14.3268 20.1171 14.7099 19.6318 15.0658C19.1283 15.4351 18.4422 15.752 17.623 16.0092C15.9853 16.5234 13.9062 16.7699 11.9404 16.7699H11.9395C10.6514 16.7722 9.36523 16.6613 8.09668 16.4379L8.0918 16.4369L7.79199 16.3871L7.20996 16.2895V18.3588L7.47266 18.5004L7.60352 18.5697V18.5707C7.7951 18.6738 7.95537 18.8266 8.06738 19.0131C8.15139 19.1531 8.20615 19.3085 8.22852 19.4692L8.24023 19.6313V21.0893C8.21516 21.3931 8.07822 21.6769 7.85449 21.8842C7.62902 22.0931 7.33274 22.2093 7.02539 22.2094C6.71808 22.2094 6.42179 22.093 6.19629 21.8842C5.97448 21.6787 5.83733 21.3979 5.81055 21.0971V19.6L5.80957 19.5903C5.80546 19.3713 5.86306 19.1557 5.97461 18.9672C6.08626 18.7786 6.24827 18.6246 6.44238 18.5229L6.45703 18.5151L6.47168 18.5063L6.60254 18.4262L6.83984 18.2797V16.1196L6.49805 16.0053L6.31836 15.9457L6.31445 15.9447L5.83496 15.7768C5.34774 15.5942 4.84885 15.3658 4.42188 15.0863C3.86291 14.7204 3.49438 14.309 3.37012 13.8569V7.05803Z" fill="#383641" stroke="white"/>
</svg>
