<svg xmlns="http://www.w3.org/2000/svg" width="24" height="24" fill="none">
  <path fill="#DC001C" fill-rule="evenodd" d="M12 1c6.0754 0 11 4.92465 11 11 0 6.0754-4.9246 11-11 11-6.07535 0-11-4.9246-11-11C1 5.92465 5.92465 1 12 1Zm5.9189 7.92578c-.3844-2.78945-3.168-4.2098-6.1337-3.87793-2.34503.26261-4.68268 2.15958-4.78032 4.87012-.06046 1.65563.40991 2.89783 1.98438 3.24703.68274-1.2058-.21963-1.4711-.36035-2.3447-.57844-3.57468 4.12349-6.01413 6.58399-3.51757 1.7029 1.72882.5813 7.04587-2.165 6.49417-2.6296-.529 1.2884-4.7622-.8116-5.5928-1.7061-.67527-2.61263 2.0655-1.8037 3.4277-.47436 2.3419-1.49592 4.5487-1.08201 7.4864 1.34091-.9731 1.79331-2.837 2.16401-4.7803.6736.4092 1.0349.8348 1.8946.9014 3.1711.2451 4.9424-3.1649 4.5097-6.31352Z" clip-rule="evenodd"/>
</svg>
