<svg xmlns="http://www.w3.org/2000/svg" width="58" height="59" fill="none">
  <path fill="#FFB142" fill-rule="evenodd" d="M31.3694 58.2959c.2833-.123 1.3356-.2051 1.6999-.3692-1.7404.1231-1.7404.0821-1.6999.3692ZM.688866 27.7326c-.202357 1.1077-.080943 1.8871 0 2.5435-.121414-.7384.121414-1.8871 0-2.5435ZM28.1719 58.2549c.0405.041.2024.082.3238.082.1214 0 .2833 0 .4452-.041-.1619-.041-.2428-.041-.3238-.082-.2833 0-.4452 0-.4452.041Zm1.697 0c-.0809.041-.0809.041-.1619.082.081 0 .2429.0411.3643.0411 0-.0411.1619-.0411.0809-.0821-.0405 0-.2023 0-.2833-.041ZM32.6629.492284c.9714.205123 2.0642.451271 3.0356.697416.3643.12308.769.24615 1.1333.36922.8499.12308 1.6594.6564 2.4285.90254l-.0405-.04102c.4047.20512.769.3282 1.1737.53332.3643.12307.8095.41024 1.1333.53332.6476.36922 1.2952.69742 1.8214 1.06664.3238.20512.5262.36922.7286.45127.4857.32819.9309.65639 1.457 1.02561.2024.08205.4857.36922.6476.45127.1619.08205.2834.1641.3643.20512-.2024-.28717-.5666-.57434-.9309-.82049l-1.7404-1.18971c-.5262-.36922-1.0119-.73844-1.4976-.86152-.4047-.20512-.769-.41024-1.1333-.61536-.6071-.24615-1.3356-.69742-1.9832-.86152-.2429-.12307-.5262-.20512-.7286-.3282-.4452-.16409-.8904-.41024-1.2547-.45127-.1619-.04102-.3238-.12307-.4452-.1641-.1214-.04102-.2429-.08204-.4048-.12307-.1214-.04102-.2428-.08205-.3643-.08205-1.1332-.410244-2.307-.697416-3.4403-.861514-.3238-.041024-.4857-.041024-.4857.041025 0 0 .2024.082049.5262.123073ZM43.5101 4.55372c.1214.04102.2429.1641.4048.28717-.1619-.12307-.2834-.20512-.4048-.28717Zm9.5538 42.00918c-.0405.041-.0405.082-.0405.082l.0405-.082Z" clip-rule="evenodd"/>
  <path fill="#FFB142" fill-rule="evenodd" d="M56.9487 34.2965v-.041c.1214-.7384.2428-1.5179.1618-2.3384-.0404.041-.0404.1231-.0809.2051v-.4923l-.0405-.123v-.1231c0-.6154 0-1.2718.0405-1.9282 0-.123-.0405-.2051-.0809-.3692-.1619-1.8051-.4857-3.6922-.9714-5.4562-.0405-.1231-.1214-.2872-.1619-.4103-.4452-1.5179-.931-2.9127-1.5381-4.4306-.0405-.0821-.1619-.2462-.2024-.3282-.0809-.1641-.1214-.2872-.1618-.4103-.0405-.2461-.1619-.4923-.3643-.7384-.4857-.9436-.8905-1.9692-1.5381-2.6256-.8499-1.0666-1.8213-2.4615-2.8332-3.4871-.4857-.5333-.8095-1.1077-1.2952-1.59995-.4857-.45127-.5666-.28717-1.2952-.86152-.769-.57434-1.4975-1.27176-2.3475-1.8461l-.0405.08205c0-.04103-.0405-.12308.0405-.08205l-.3238-.24615-.0405.08205c-.3642-.24615-.688-.49229-1.0118-.69742-.081-.04102-.2429-.08205-.3643-.1641l-.1214-.04102-.081-.08205c-.2833-.24615-.688-.36922-.8499-.57434.2023 0 .8094.36922.8904.28717-1.1333-.73844-1.8619-.98459-2.3476-.98459-.2428-.12308-.5666-.28717-.5261-.3282.2024-.1641-.3238-.32819-.9714-.53332-.5262-.1641-.6881-.12307-.6881 0-.1619-.08205-.2428-.08205-.3643-.1641-.1618-.08205-.2833-.12307-.4047-.16409l.0405.04102c-.1619-.08205-.2834-.12307-.4048-.1641-.4452-.1641-1.1737-.36922-.9309-.49229.2024-.08205-.1214-.20513-.6476-.36922-.4452-.12308-.8904-.3282-1.3761-.28718.5261.1641 1.1737.4923.9714.61537-.2429-.04102-.4857-.12307-.7691-.1641-.1619-.16409-.2833-.28717-.5261-.45127-.0405-.08204-.1215-.12307-.3643-.20512-.0405-.1641-.1619-.36922-.4452-.53332.2428 0 .5262.04103.8095.08205.8499.1641 1.6594.41025 2.388.73844.4452.24615 1.0118.41025 1.5785.4923.7285.32819 1.4571.61537 2.1856.94356 1.8214.86152 3.5213 1.84611 5.1403 2.8307h-.0405c.931.57434 1.7405 1.43586 2.6309 2.13328.3643.20512.769.65639 1.1738 1.06664.1214.12307.2833.24614.4047.41024.2833.24613.5667.57433.85.90253.8499 1.0667 1.6595 2.0102 2.388 3.0358-.0405-.082-.0405-.082-.081-.1641l.0405.0411.0405.123c.2428.3282.4857.7795.7285.9846l.1215.1641.0809.1641c.3643.6564.6476 1.3949 1.0119 1.8461.0809.1641.1214.1641.2024.3282.2023.4513.4047.9026.6071 1.2308.0404.082.0405.082.0809.082.0405.041.0405 0 0-.1231-.2428-1.0666-.7285-2.1332-1.4571-3.2819-.2024-.2872-.4452-.6975-.6476-1.0256-1.2547-2.3384-2.8737-4.0205-4.6546-5.49734-.2428-.24615-.4452-.45127-.6475-.53332-.2429-.20512-.4857-.41025-.6476-.45127-.2429-.20512-.4453-.36922-.6072-.4923-.3238-.28717-.6475-.57434-.9713-.86151-1.4167-1.27176-3.0761-2.21533-4.7761-2.9948-.769-.36922-1.619-.61536-2.4285-1.06663-.6071-.3282-1.3761-.6564-1.1333-.24615.0405.08205-.4856-.08205-.8094-.1641-.6072-.1641-1.3357-.45127-1.9833-.57434-.0809 0-.2024-.04103-.2429-.08205-.1214-.04103-.2428-.08205-.4452-.08205-.0809 0-.1619 0-.2833-.08205-.5666-.205125-1.1738-.369223-1.7404-.492297-.2024-.041024-.4452-.123074-.769-.164098-.0405-.082049-.1619-.123074-.4452-.164098-.1619-.041025-.2429-.041025-.4453-.08205h-.1619.1215c-.081-.082049-.2024-.123073-.5667-.123073h-.0405C29.1021 0 28.9806 0 28.6973 0c-.0809 0-.2428.0410246-.2833 0-.6476.0410246-1.3357.164098-1.9833.246147-.3643-.041024-.769 0-1.1333.041025-1.5785.082049-3.1165.328197-4.695.697418V.943565c-.6881 0-1.5786.369225-2.388.574345-.3643 0-.8095.1641-1.1738.3282-.2429.04102-.5667.12307-.9309.28717-.4048.1641-.2429.20512-.4857.32819-.2024.08205-.3643.20513-.4048.28718-.1214.08205-.6476.32819-.4857.36922.0405.04102.1619.04102.4453 0 .1214.08205.4047.04102.8904-.08205l.081-.04103c-.0405 0-.081.04103-.081.04103.3238.04102.6476.12307.9714.1641.0405.12307.1619.1641.5666.08205-.2428.12307-.4452.28717-.6475.45127-.6072.36922-1.4167.65639-1.7405 1.10766-.8095.61537-1.7809 1.18971-2.4285 1.88713l.0405-.04102c-.3642.41024-1.0118.77946-1.2952 1.18971-.1619.1641-.4857.41024-.6476.65639l-.0404.08205-.1215.08205c-.3642.36922-.72851.73844-1.13325 1.10766-.4857.41023-.97141.82053-1.37615 1.39483-.52617.6974-1.49756 1.8051-2.0642 2.7076-.56665.9436-1.45709 1.8461-1.74041 2.8718l.04046-.0411c-.04047.0411-.04046.0411-.04046.0411-.56665 1.0256-1.09284 2.0922-1.53806 3.1588-.3238.6564-.56663 1.3539-.76901 2.1743-.04047.2052-.12143.3693-.16191.5744-.52617 1.4358-.9309 2.9948-1.052328 4.5947-.080949.8205-.202388 1.559-.04049 2.2564v.2461c-.080949.2052-.080929.4513-.080929.7385-.161899.7384-.00001 1.5589.040465 2.3384l.040464.041s.00001 0-.040464-.041c-.08095.3282.000005.8205.080954 1.2307-.040475.2872.121418.8205.121418 1.2308.04048.082.04047.1641.04047.2461-.04048.1641 0 .4513.08095.7795.04048.4923.20237 1.0256.40475 1.3948.08095.3692.16189.6974.32379.9846.12142.4513.24286.8205.36428 1.2307.24285.6154.44523 1.4769.76903 2.0102.12143.2462.20236.5334.28331.7385.20237.4513.3238.9025.56665 1.1897.08095.1641.1619.3282.20237.4513.04048.123.12143.2461.20238.3692.08095.1231.12142.2051.20237.3282.52617 1.1076 1.13328 2.1333 1.86183 3.0768.20237.2462.32381.3692.36428.3282.04048-.041-.04047-.2461-.20237-.4923-.52617-.8615-1.13328-1.8051-1.65946-2.6255-.16189-.3282-.36428-.6975-.56665-1.0667-.52617-.6974-.68808-1.641-1.09282-2.3794v.082c-.1619-.4102-.28332-.7794-.44522-1.1897-.16189-.3282-.28333-.8615-.44523-1.2307-.04048-.2051-.12141-.3692-.16189-.5744 0 .0411.04047.0821.04047.0821.04047.082.08094.1231.12142.2051 0-.082-.04047-.1641-.04047-.2461v-.0411c0-.082.00001-.2051-.04046-.3282.04047-.164-.0405-.4512-.12145-.7794h.04049v-.2462c.24285.9026.52617 1.7641.84996 2.6256.28333.8205.68808 1.6.97141 2.5025.20237.6564.52617 1.4769.60712.9846.04047-.0821.28331.4102.44521.6974.3238.5744.64759 1.2308 1.01187 1.8461.04047.041.12142.1641.12142.2462.04047.123.12143.2461.24286.4102.04047.041.12141.1231.16188.2462.8095 1.6409 1.82139 3.1589 3.35942 4.3896.20233.1641.44523.4513.60713.6154.2428.4102.6476.7794 1.0523 1.1076 1.2143 1.0667 2.4285 2.0102 3.8047 2.8717v.0411c.4857.4923 1.3761.8615 2.0642 1.3128.2428.2461.688.4512 1.0523.6153.2024.1641.4857.2872.85.4513.4047.2051.3238.041.5666.1231.2024.082.4048.123.4857.082.1214 0 .6881.2051.6071.0821 0-.0821-.0809-.1641-.3238-.2872-.0404-.1231-.2833-.3282-.688-.5744l-.081-.041c.0405 0 .081.041.081.041-.1619-.2461-.3643-.5333-.5667-.8204.0405-.1231 0-.2872-.5666-.6154-.0405-.1231-.1619-.2462-.2024-.3692.4047.2051.85.3692 1.2547.5333.4048.1641.6881.1231.6881.041.1214-.082-.3643-.2461-.6476-.4102-.3238-.1641-.6071-.3693-.6071-.4513-.0405-.1231.4452.082.6881.1231.8499.2051 1.9427.7794 2.9141.9025.4452.1231 1.0119.3692 1.4166.3282.6476.1231 1.3357.3692 1.9023.3282-.0404-.041-.1214-.041-.1618-.082h.0404l.1214.041c.6072.082 1.3357.2461 1.8619.1641l-.081-.041h.081c.9714.041 1.9833.3281 3.0761.123.8499-.1231 2.3475-.2051 3.3594-.4102 1.0523-.2462 2.307-.2872 3.2379-.7795h-.0809c.0405-.041.0405 0 .0405 0 2.0237-.5333 4.007-1.3128 5.8688-2.3794 1.2143-.5744 2.4285-1.2718 3.5213-2.1333.0405.041.1619.041.3643-.1231l.1214-.123s-.081.082-.1214.123c.1214 0 .2428 0 .3643-.082-.2834.2051-.5667.4923-.85.6564h.0405c-.2834.1641-.7286.4923-1.0119.6154-.6476.2461-1.3357.8615-2.0642 1.2307-.1619.082-.4048.2051-.6072.2872-.4047.123-.9309.4923-1.3761.6153-.2428.0821-.4047.1641-.5666.2462-.7286.3692-1.4571.6974-2.2666.8615l-.1214.041-.081.041c-2.307.5744-4.007 1.1898-5.7879 1.6 3.3999-.3692 6.6784-1.3948 9.714-2.8717.2023-.1231.4047-.2051.6476-.3282.5666-.1231 1.1737-.5333 1.7404-.9436.3238-.2051.6071-.3692.9309-.5743.3238-.1641.6881-.4513.9714-.6154.1214-.082.2024-.1641.2833-.2051.2833-.1231.6476-.4103.9714-.6974.0809-.0821.2428-.1641.2833-.2462.1214-.082.3238-.1641.4048-.2461.1619-.1641.2833-.2872.4452-.4103.0809-.041.2024-.1231.4047-.3282h.0405c.0405 0 .1619-.082.3643-.2461.0405-.0821.1619-.2051.2024-.2051.9309-1.1077 1.7412-2.3795 2.5102-3.6102.2833-.4513.5658-.9025.7682-1.3538.2024-.2872.4047-.6154.5262-.9026.0809-.123.2024-.2461.2833-.3692.5666-1.5179 1.2142-3.1178 1.4571-4.5947.2024-.6975.5666-1.4769.4857-2.0513.1619-1.0256.4452-2.1332.4047-3.0768l-.0404.082ZM51.525 12.6356c-.0404 0-.0404 0 0 0ZM16.0692 2.58455s-.0405-.04103.0405-.08205c.0404-.04103.0809-.04103.1214-.04103-.081.04103-.1619.12308-.1619.12308ZM19.5905 58.378s0 .041-.0809.041c-.0405 0-.081-.041-.1215-.041h.2024Zm35.4154-25.3942c.0405-.6154.0809-1.2308 0-1.8051.1214.4923.0405 1.1487 0 1.8051Zm.0809-11.7331c-.0405-.041-.0809-.2051-.1214-.2051 0-.082-.0405-.1641-.0405-.2461.0405.1641.1214.3282.1619.4512Zm-.2428 3.5692c0 .041 0 .123-.0405.082 0 0 .0405-.041.0405-.082Zm-1.2143 3.6512c0 .123.0405.2051.0405.2871 0 .2462-.0405-.041-.0809-.1641 0 0 .0404 0 .0404-.123Zm-.3643 4.3486v.082-.082Zm-5.8283 15.2611c.0405-.0821.0809-.1641.1619-.2461.0405-.4103.5666-1.1898.9714-2.0513-.1619.6154-.5667 1.3538-.9714 2.0513 0 .041-.0405.082 0 .123-.081 0-.1214.041-.1619.1231Zm-35.9415-.4102c-.0405 0-.081-.0821-.1215-.0821v-.041c-.0809-.0821-.0404-.041-.0809-.0821 0 0 .0404 0 .0809.0821h.0405l.0405.041c.0404.041.0405.041.0405.0821Zm-4.89749-1.4769c0-.0411-.04047-.0411-.04047-.0411.04048.0411.08094 0 .04047-.041v-.041s.00001 0 .04049.041c-.24285-.4923-.48571-1.1897-.24287-1.1076.24285.3692.52619.9435.84999 1.3127.1619.2052.32378.4513.48567.6975.24285.6153.28334.7384.16191.9435-.1619-.2871-.40474-.5333-.60712-.9025-.12142-.2872-.40473-.6154-.64758-.9436 0 .041-.00002.041-.04049.0821Zm.40474-7.5075c-.04047-.041-.08094-.0411-.12141-.0411-.04048.1641-.08095.3282-.12142.4103.04047-.1641.04047-.4103.12142-.4103 0-.123.04046-.2051.04046-.3281.04048.123.04048.1641.08095.3692Zm-.89044 4.9639s.00001-.041-.04047-.041c.08095.1231.20238.3282.28333.4513h-.04049c-.04048-.1231-.08095-.2462-.20237-.4103Zm-.44522-2.6665c-.08095-.1231-.08094-.1641-.12142-.2052 0-.041-.04048-.123-.04048-.1641.04047.1231.12143.2462.1619.3693Zm-.84996-3.6923c-.04047 0-.08096-.041-.12144-.123v-.0821c0 .1231.08097.2462.12144.2051Zm-2.54992-2.3384c0-.041-.04047-.123-.04047-.123 0 .082-.00001.082.04047.123Zm.72856 2.7077c-.04047 0-.04048.2051.04047.4102-.08095-.1231-.12144-.2872-.16191-.4513 0-.082.08097 0 .12144.0411Zm1.33566-1.559c-.08095-.123-.12142-.2461-.20237-.5743.08095.2461.12142.4102.20237.5743Zm.20238 1.5179c0-.2051-.04049-.3282.04046-.3692-.08095 0-.08094.1641-.04046.3692Zm-2.83323-7.7536v.041c0 .1641-.04049.2872-.04049.4103v.123-.082c0-.1641.04049-.2872.04049-.4103v-.082Zm-.44524 4.5127c.04047 0 .04048 0 .08095-.041 0 .082.00002.1641.04049.2461-.08095-.082-.08097-.1641-.12144-.2051-.08095 0-.16189-.1231-.24284-.2872.08095.041.16189.1641.24284.2872Zm3.60226 7.7126c.08095.1641.08096.2462.16191.3692.04047.1641.12141.3282.16188.4103v-.0821c.04048.1641.08096.2872.16191.4103.20237.4513.60712 1.1076.32379 1.0256-.08095-.041-.08095 0-.08095.041-.08095-.1641-.16189-.3282-.24284-.4513 0-.2051-.28334-.5743-.44524-.9435-.04047-.2462-.12141-.5333-.24283-.8205.12142.082.16189.082.20237.041ZM30.9639 4.30758c0 .08205-.1619.04102-.1619.08205 0-.04103.1619-.04102.1619-.08205Zm-1.8618-.24615c-.0405 0 .0404 0 0 0h-.1619.0809c.1214-.04102.3238-.04102.5262-.04102-.1214.04102-.3643 0-.4452.04102Zm.4047.28718h-.2833.2833ZM49.5013 40.7374c0-.041.081-.1231.081-.1641-.0405.0821-.1215.2462-.081.1641Zm.0405.2051c-.0405 0-.0405 0-.0405.0411 0-.0411.0405-.0411.0405-.0411 0-.041 0-.041 0 0Zm2.8737-8.328c0 .0821 0 .1231-.0405.2462 0-.1231 0-.1231-.0405-.1641.0405-.0821.081-.041.081-.0821Zm-.5262-14.2765c0-.041-.0405-.041-.0405-.0821 0-.082-.0404-.082-.0404-.082 0 .041.0405.082.0809.1641Zm-.1214-2.7897c0 .041 0 .041 0 0-.0405-.041-.0405 0 0 0Zm-8.8235-7.8767c-.2024-.12308-.4047-.20513-.5262-.28718.1215.04103.2834.12308.5262.28718Zm-1.6595-.77947c.0405 0 .081 0 .1215.04102l.0405.04103c-.0405-.08205-.1215-.08205-.162-.08205Zm.162-.12308c.0404-.04102-.081-.16409-.2429-.28717.1619.12308.2833.20513.2429.28717Zm-3.1571-1.80508c.0405.04103.1215.04103.1215.08205-.081-.04102-.2429-.08205-.3643-.12307.1214 0 .2023.04102.2428.04102Zm-2.8737-1.72303c.1214.04103.2429.04103.4452.08205h.0405c-.1214-.04102-.3238-.08205-.4857-.08205ZM30.1139.246147c-.0404 0-.0404 0-.0809.041025l.0809-.041025Zm-4.7355.164099h.0809-.2833.2024ZM6.23385 14.4407v.123c-.04047-.041-.04047-.082 0-.123Zm-.04049.164c-.04047 0-.04047 0 0 0-.04047.0411-.08094.0411-.12142.0411.04048 0 .08095-.0411.12142-.0411ZM.891182 32.0402c0 .041-.04049.082-.04049.041v-.082c.040475.082.04049.082.04049.041ZM4.49342 43.1168c-.08095-.2051-.16189-.3692-.24284-.5743.04047.041.08095.082.08095.1231.04048.123.12143.3692.20238.5333 0 0-.00002-.041-.04049-.0821Zm1.90231 3.7333c-.48569-.6975-.89043-1.4769-1.13328-2.2154-.04048-.082-.08095-.2051-.12142-.2871.08095.123.1619.2871.20237.4102.08095.2051.28331.5333.44521.7795.04048.041.08095.082.12142.1231.60712.8204 1.1333 1.682 1.90232 2.4204 0 .041-.04047.041-.04047.082-.24284.0821-.8095-.6153-1.37615-1.3127Zm1.65948-5.4973c.1619 0 .20237-.2052.12142-.5744.04048.2462.08095.4513.12142.6564.12142.4103-.08094.0821-.24284-.082Zm.3238 5.087c.04047 0-.04049-.1231.04046-.041.08095.082.00001.082.04049.1641 0 0-.04048-.041-.08095-.1231Zm1.90229.041c.0405-.041.1619.0821.1619.0821-.0405 0-.1619-.1231-.1619-.0821Zm.8095 1.2308c.081.041.2429.2461.3238.2461.0405.0411 0 0 0 .0411.0405.041.1214.123.1214.123l-.0404-.041c-.1215-.0821-.2834-.2051-.4048-.3692Zm.4048 5.5383s-.0001 0-.0405-.041c.0404.041.1619.1231.2023.1641l-.1618-.1231Zm1.1332-.4513c0-.041 0-.041 0 0-.2023-.2461-.3238-.4102-.4857-.6153l-.0404-.0411c.0405.0411.0404.0411.0404.0411.4453.3282.4857.4512.4857.6153.0405 0 .0405.041.081.0821-.0405-.0411-.0405-.0411-.081-.0821Zm1.9833-3.405c.1214.041.1214.041.2429.082-.0405 0 0 .0821 0 .1231-.081-.082-.162-.1231-.2429-.2051Zm4.4522 3.5281c.1214.041.1619.041.2429.082-.081-.041-.081 0-.2429-.082Zm1.4571.7795c.0405.041.0405.041 0 0h-.0405c-.1214.041-.3642 0-.6071-.0821-.1214-.041-.2428-.082-.3642-.1641h-.0405c-.1215-.041-.1215-.041-.2024-.082.0809.041.1619.082.2429.082.1214.041.2428.1231.3642.1641.2024.041.4048.041.6071.0821h.0405c-.1214-.1231-.1619-.2052-.2428-.2872 0 0-.0405 0-.0405-.041h.0405s-.0405-.0411-.081-.0821c-.2833-.2051-.5666-.3692-.769-.5743-.2833-.1641-.6071-.4103-.6071-.4103s.3238.2052.5666.3282c.0405.0411.0405.0411.081.0411.4047.2051.6071.4102.769.5743.0405.041.0809.041.1214.082l-.0405-.041c.1619.2462.3238.3692.2024.4103Zm.7286.123-.3238-.123c.1214.041.2428.123.3642.1641.0405 0 0 0-.0404-.0411Zm3.157 1.3949c.0405 0-.081-.0411-.081-.0821.0405.041.081.0411.1619.0821h-.0809Zm3.4808.6974c-.1214-.0821-.2833-.1641-.4452-.2051.1214 0 .3238 0 .5262.041.1214.041.2023.1231-.081.1641Zm2.2261-1.7641c.0405.0411.1215.0411.2024.0411-.1214-.0411-.2024-.0411-.2833-.0411h.0809Zm.2833.4103c.0405 0 .0405 0 0 0 0 .041-.0809.041-.1618.041.0809 0 .1214 0 .1618-.041Zm4.5332 2.4204c-.0405.0411-.0405.0821-.1214.0821.0405 0 .0809-.041.1214-.0821 0 0 .081.0411.1619.0411-.0405 0-.0809-.0411-.1619-.0411Zm2.388-2.8307c-.1214.0411-.2428.0821-.2833.0411h-.081c.0405 0 .0405 0 .081-.0411v.0411h.1619c.0405-.0411.081-.0411.1214-.0411h.0405-.0405Zm5.5046-2.5435c-.3643.1641-.6881.3282-.8095.2462-.2024-.0411.2024-.2872.5262-.4923.1214-.0821.3238-.2052.2023-.2462-.2023.041-.5261.2872-.688.2462.2833-.2052.6476-.3282.9309-.5744-.081 0-.1214.041-.1214 0h-.0405.0405c.0809-.041.1214-.041.1214 0 .0405-.041.1214-.082.1619-.1231.3642-.164.769-.5333 1.1738-.6974.5666-.2871.9713-.6974 1.457-1.1487h.0405l.0405-.041h-.0405c.3238-.4923-.1214-.082-.4047.1231l-.1214.082-.081.0411c-.2428.041-.6071.4102-.85.4923.9309-.7795 1.9023-1.5179 2.7523-2.4205.0405-.041.1214-.1231.2024-.1641v.041c-.0405.1231.0405.0411.1214-.082.0405-.0821.1214-.1641.1214-.1641.1619-.1641.2834-.3282.2834-.4103 0-.1641.0809-.3282.2023-.4923.2024-.123.5262-.4512.6881-.4102-.1214.2051-.1619.3282-.1619.4102-.4452.6564-.6071.9846-.85 1.4359-.2428.4513-.3238.7385-.7285 1.2718-.2429.2461-.4452.5333-.6476.7794-.0405.0411-.1214.0821-.1619.1231-1.0928.8205-2.2261 1.5179-3.3594 2.1743Zm1.2142-.2461c.0405 0 .1214-.0821.1214-.0821.0405 0 .081-.041.1215-.041.0405-.041.1214-.041.1619-.0821-.0405 0-.081.0411-.1619.0821-.081.041-.1619.1231-.2429.1231ZM7.80983 11.0767c-.08095.2871-.8095 1.0666-.93092 1.4768 1.1333-1.3127 1.17377-1.2717.93092-1.4768Z" clip-rule="evenodd"/>
  <path fill="#FFB142" fill-rule="evenodd" d="M.688077 26.3378c.08095-.3282.161904-.8615.283329-1.1487.323794-.6564.323794-1.6.607124-2.3384.04047-.1641.12142-.4102.20237-.6564.20238-.4102.28332-1.0256.52617-1.4359.08095-.2461.16189-.4102.24284-.5743.28332-.7795.56666-1.5589.9714-2.2153l.04047-.1231.04049-.082c.72855-1.1898 1.29519-2.2564 1.82137-3.241l.44521-.6974c.1619-.2462.24285-.4513.20237-.4923.1619-.2872.32381-.5743.48571-.8205-1.90232 2.3794-3.3999 5.1281-4.49272 7.9588-.04048-.0821-.12143.082-.20238.3282-.1619.5743-.40474 1.1076-.52617 1.682-.20237.4923-.364259 1.0666-.445209 1.641-.08095.3692-.161914.6974-.242864 1.0666-.121424.3282-.161889.7795-.242839 1.1487 0 .1641-.040465.2461-.040465.3282-.121424.2872-.161899.7384-.202374 1.1897 0 .1231-.040489.2872-.040489.3692-.0404753.1641-.0809452.3282-.12142.4513v1.3948c0 .0411.0404649.0821.0404649.0821.0404749.041.0404897.041.0404897-.0821.0404744-.082.0809544-.2051.0809544-.3692.08095-.2051.040455-.5743.08093-.8615v-.2872c.08095-.2051.121434-.4513.161909-.8205-.040475.1231-.04048.2051-.080954.2872 0 .041-.040465.082-.040465.1231v-.0411c0-.041.040465-.041.040465-.082.040474-.0821.040479-.2051.080954-.2872.1619-.2872.12143-.9846.283329-1.3948ZM50.8356 10.7074c-.6072-.94357-1.2547-1.39484-1.7809-1.80509.6071.45127 1.2142 1.39479 1.7809 1.80509Zm3.1188 4.5127c.2023.3282.4047.7385.6071 1.1487.1214.1641.2023.4103.2833.4923.1619.2051.1214-.041-.0405-.2872-.4047-.7794-.7285-1.5999-1.2142-2.1743-.0405-.082-.1214-.1641-.2024-.2871-.1619-.2462-.3238-.4513-.4047-.4513-.0809-.041.0809.2051.1619.4102.3238.3693.5666.8205.8095 1.1487ZM10.0783 8.77927c-.08096 0-.16191.08205-.28334.1641-.08094.08205-.20237.20512-.28332.3282.12142-.08205.20238-.12308.28332-.20512.20237-.08205.32384-.24615.28334-.28718ZM8.90242 10.051c.04048-.041.04049-.08202.08096-.16407-.08095.04103-.20238.16407-.28334.20517 0 0-.08095.1641 0 .123 0 0 .12143-.123.20238-.1641ZM54.764 43.8553c-.081.082-.081-.082-.2024.2461-.0405.0821-.0405.1641 0 .1641.0405-.041.1214-.1641.2024-.2871.081-.1231.081-.2462 0-.1231Zm2.2633-19.0765c.0809.0411 0-.3282-.0405-.5333l-.2429-1.2717c-.1214-.2462-.1619-.2052-.1619.041l.2429 1.2307c.081.3282.1619.5333.2024.5333ZM43.875 6.52289l.1214.12307-.0809-.12307h-.0405Z" clip-rule="evenodd"/>
  <path fill="#fff" d="M41.9738 20.2252c-.688.2051-1.2142.1641-1.2142.1641l.0405-.1231c.6476-.5333 2.2261-2.0923 2.4284-2.8307.081-.3282 0-.4102 0-.4513l-2.0642.8615-1.6999.7795c-1.1738-1.2717-2.9546-2.0922-4.9784-2.0922-3.5618 0-6.4355 2.5435-6.4355 5.7024 0 .5743.081 1.641.2834 2.1333 0-.1641 0 .1641 0 0-2.3071-.0821-5.2213-1.0257-7.8522-2.3795-5.1807-2.5435-5.5045-4.3896-5.5045-4.3896-.8095.8615-1.2143 3.7743-.4048 6.0306.5262 1.4359 2.3476 2.7487 2.3476 2.7487s-.8095 0-1.6595-.2872-1.1738-.5744-1.1738-.5744c-.4857 1.2308.5262 3.4461 2.2666 5.0461 1.0119.9435 2.8737 1.5179 2.8737 1.5179l-2.9142.082c-.1619 2.8717 5.9094 4.5538 5.9094 4.5538-1.7809 1.3948-3.8451 2.2153-6.0712 2.2153-1.1333 0-2.2666-.1641-3.319-.4923 2.9142 2.4615 6.6784 4.1435 10.7663 3.8973 10.8472-.5743 16.9994-10.051 17.2827-19.3226 0 0 .5262-.2461 1.5785-1.3538 1.0929-1.1076 1.7809-2.3794 1.7809-2.3794s-1.5785.7795-2.2666.9436Z"/>
</svg>
